<?xml version="1.0" encoding="UTF-8" standalone="no"?>
<!-- Created with Inkscape (http://www.inkscape.org/) -->

<svg
   xmlns:dc="http://purl.org/dc/elements/1.1/"
   xmlns:cc="http://creativecommons.org/ns#"
   xmlns:rdf="http://www.w3.org/1999/02/22-rdf-syntax-ns#"
   xmlns:svg="http://www.w3.org/2000/svg"
   xmlns="http://www.w3.org/2000/svg"
   xmlns:sodipodi="http://sodipodi.sourceforge.net/DTD/sodipodi-0.dtd"
   xmlns:inkscape="http://www.inkscape.org/namespaces/inkscape"
   id="svg2857"
   version="1.1"
   inkscape:version="0.47 r22583"
   width="381.47711"
   height="163.03168"
   xml:space="preserve"
   sodipodi:docname="PGR-OpenGL-II.pdf"><metadata
     id="metadata2863"><rdf:RDF><cc:Work
         rdf:about=""><dc:format>image/svg+xml</dc:format><dc:type
           rdf:resource="http://purl.org/dc/dcmitype/StillImage" /><dc:title></dc:title></cc:Work></rdf:RDF></metadata><defs
     id="defs2861"><inkscape:perspective
       sodipodi:type="inkscape:persp3d"
       inkscape:vp_x="0 : 0.5 : 1"
       inkscape:vp_y="0 : 1000 : 0"
       inkscape:vp_z="1 : 0.5 : 1"
       inkscape:persp3d-origin="0.5 : 0.33333333 : 1"
       id="perspective2865" /><clipPath
       clipPathUnits="userSpaceOnUse"
       id="clipPath2877"><path
         d="m 0,2519.22 3628,0 0,201.781 -3628,0 0,-201.781 z"
         id="path2879" /></clipPath></defs><sodipodi:namedview
     pagecolor="#ffffff"
     bordercolor="#666666"
     borderopacity="1"
     objecttolerance="10"
     gridtolerance="10"
     guidetolerance="10"
     inkscape:pageopacity="0"
     inkscape:pageshadow="2"
     inkscape:window-width="1365"
     inkscape:window-height="750"
     id="namedview2859"
     showgrid="false"
     inkscape:zoom="1.5992356"
     inkscape:cx="262.9483"
     inkscape:cy="92.061097"
     inkscape:window-x="1"
     inkscape:window-y="0"
     inkscape:window-maximized="1"
     inkscape:current-layer="g2867" /><g
     id="g2867"
     inkscape:groupmode="layer"
     inkscape:label="PGR-OpenGL-II"
     transform="matrix(1.25,0,0,-1.25,-38.55626,247.51385)"><g
       id="g5689"
       transform="translate(2.0009523,-37.517923)"><path
         d="m 29.1004,105.36 24.884,0 0,118.245 -24.884,0 0,-118.245 z"
         style="fill:#ffffff;fill-opacity:1;fill-rule:nonzero;stroke:none"
         id="path4359" /><path
         d="m 29.1004,105.36 24.884,0 0,118.245 -24.884,0 0,-118.245 z"
         style="fill:none;stroke:#000000;stroke-width:0.51268899;stroke-linecap:butt;stroke-linejoin:miter;stroke-miterlimit:10;stroke-opacity:1;stroke-dasharray:none"
         id="path4361" /><path
         d="m 75.2328,105.365 227.464,0 0,118.604 -227.464,0 0,-118.604 z"
         style="fill:#ffffff;fill-opacity:1;fill-rule:nonzero;stroke:none"
         id="path4363" /><path
         d="m 75.2328,105.365 227.464,0 0,118.604 -227.464,0 0,-118.604 z"
         style="fill:none;stroke:#000000;stroke-width:0.49989098;stroke-linecap:butt;stroke-linejoin:miter;stroke-miterlimit:10;stroke-opacity:1;stroke-dasharray:none"
         id="path4365" /><path
         d="m 77.8496,161.489 221.861,0 0,58.018 -221.861,0 0,-58.018 z"
         style="fill:#ffffff;fill-opacity:1;fill-rule:nonzero;stroke:none"
         id="path4367" /><path
         d="m 77.8496,161.489 221.861,0 0,58.018 -221.861,0 0,-58.018 z"
         style="fill:none;stroke:#000000;stroke-width:0.503869;stroke-linecap:butt;stroke-linejoin:miter;stroke-miterlimit:10;stroke-opacity:1;stroke-dasharray:none"
         id="path4369" /><path
         d="m 92.5945,109.442 27.4207,0 0,39.9668 -27.4207,0 0,-39.9668 z"
         style="fill:#ffffff;fill-opacity:1;fill-rule:nonzero;stroke:none"
         id="path4371" /><path
         d="m 92.5945,109.442 27.4207,0 0,39.9668 -27.4207,0 0,-39.9668 z"
         style="fill:none;stroke:#000000;stroke-width:0.51662403;stroke-linecap:butt;stroke-linejoin:miter;stroke-miterlimit:10;stroke-opacity:1;stroke-dasharray:none"
         id="path4373" /><path
         d="m 135.032,109.442 23.7297,0 0,39.9668 -23.7297,0 0,-39.9668 z"
         style="fill:#ffffff;fill-opacity:1;fill-rule:nonzero;stroke:none"
         id="path4375" /><path
         d="m 135.032,109.442 23.7297,0 0,39.9668 -23.7297,0 0,-39.9668 z"
         style="fill:none;stroke:#000000;stroke-width:0.51662403;stroke-linecap:butt;stroke-linejoin:miter;stroke-miterlimit:10;stroke-opacity:1;stroke-dasharray:none"
         id="path4377" /><path
         d="m 170.063,109.416 21.9363,0 0,40.0184 -21.9363,0 0,-40.0184 z"
         style="fill:#ffffff;fill-opacity:1;fill-rule:nonzero;stroke:none"
         id="path4379" /><path
         d="m 170.063,109.416 21.9363,0 0,40.0184 -21.9363,0 0,-40.0184 z"
         style="fill:none;stroke:#000000;stroke-width:0.51662403;stroke-linecap:butt;stroke-linejoin:miter;stroke-miterlimit:10;stroke-opacity:1;stroke-dasharray:none"
         id="path4381" /><path
         d="m 205.118,109.414 21.9402,0 0,40.0223 -21.9402,0 0,-40.0223 z"
         style="fill:#ffffff;fill-opacity:1;fill-rule:nonzero;stroke:none"
         id="path4383" /><path
         d="m 205.118,109.414 21.9402,0 0,40.0223 -21.9402,0 0,-40.0223 z"
         style="fill:none;stroke:#000000;stroke-width:0.51662403;stroke-linecap:butt;stroke-linejoin:miter;stroke-miterlimit:10;stroke-opacity:1;stroke-dasharray:none"
         id="path4385" /><path
         d="m 235.798,109.466 36.9668,0 0,39.9191 -36.9668,0 0,-39.9191 z"
         style="fill:#ffffff;fill-opacity:1;fill-rule:nonzero;stroke:none"
         id="path4387" /><path
         d="m 235.798,109.466 36.9668,0 0,39.9191 -36.9668,0 0,-39.9191 z"
         style="fill:none;stroke:#000000;stroke-width:0.51662403;stroke-linecap:butt;stroke-linejoin:miter;stroke-miterlimit:10;stroke-opacity:1;stroke-dasharray:none"
         id="path4389" /><path
         d="m 101.416,127.712 -3.5406,11.992 1.3105,0 2.9381,-10.097 2.944,10.097 1.304,0 -3.534,-11.992 -1.422,0"
         style="fill:#000000;fill-opacity:1;fill-rule:nonzero;stroke:none"
         id="path4391" /><path
         d="m 113.279,139.311 0,-1.582 c -0.477,0.294 -0.926,0.514 -1.348,0.658 -0.422,0.145 -0.83,0.217 -1.224,0.217 -0.683,0 -1.21,-0.172 -1.58,-0.514 -0.371,-0.343 -0.556,-0.83 -0.556,-1.462 0,-0.53 0.123,-0.931 0.369,-1.201 0.247,-0.27 0.714,-0.489 1.401,-0.655 l 0.757,-0.201 c 0.936,-0.23 1.627,-0.635 2.072,-1.216 0.445,-0.582 0.668,-1.359 0.668,-2.334 0,-1.162 -0.302,-2.043 -0.904,-2.642 -0.602,-0.6 -1.486,-0.9 -2.649,-0.9 -0.439,0 -0.906,0.064 -1.401,0.192 -0.495,0.129 -1.007,0.319 -1.537,0.571 l 0,1.67 c 0.51,-0.369 1.008,-0.647 1.497,-0.835 0.489,-0.187 0.969,-0.281 1.441,-0.281 0.716,0 1.269,0.182 1.658,0.547 0.389,0.364 0.584,0.883 0.584,1.558 0,0.589 -0.139,1.049 -0.419,1.381 -0.279,0.332 -0.738,0.581 -1.376,0.747 l -0.764,0.193 c -0.936,0.241 -1.613,0.619 -2.031,1.133 -0.418,0.514 -0.627,1.229 -0.627,2.144 0,1.061 0.289,1.896 0.866,2.506 0.578,0.611 1.374,0.916 2.388,0.916 0.435,0 0.878,-0.051 1.33,-0.152 0.451,-0.102 0.913,-0.255 1.385,-0.458 l 0,0"
         style="fill:#000000;fill-opacity:1;fill-rule:nonzero;stroke:none"
         id="path4393" /><path
         d="m 140.623,138.671 0,-4.532 1.568,0 c 0.58,0 1.029,0.196 1.347,0.59 0.316,0.393 0.475,0.953 0.475,1.68 0,0.722 -0.159,1.279 -0.475,1.673 -0.318,0.393 -0.767,0.589 -1.347,0.589 l -1.568,0 z m -1.247,1.342 2.815,0 c 1.034,0 1.814,-0.306 2.343,-0.917 0.529,-0.612 0.794,-1.507 0.794,-2.687 0,-1.19 -0.265,-2.09 -0.794,-2.698 -0.529,-0.609 -1.309,-0.914 -2.343,-0.914 l -1.568,0 0,-4.847 -1.247,0 0,12.063"
         style="fill:#000000;fill-opacity:1;fill-rule:nonzero;stroke:none"
         id="path4395" /><path
         d="m 150.088,138.405 -1.692,-6.003 3.39,0 -1.698,6.003 z m -0.704,1.608 1.414,0 3.514,-12.063 -1.297,0 -0.84,3.094 -4.155,0 -0.84,-3.094 -1.315,0 3.519,12.063"
         style="fill:#000000;fill-opacity:1;fill-rule:nonzero;stroke:none"
         id="path4397" /><path
         d="m 175.042,132.173 c 0.183,-0.094 0.36,-0.297 0.533,-0.607 0.172,-0.31 0.345,-0.737 0.519,-1.279 l 0.863,-2.636 -0.913,0 -0.804,2.474 c -0.208,0.646 -0.409,1.075 -0.604,1.286 -0.195,0.211 -0.461,0.316 -0.797,0.316 l -0.926,0 0,-4.076 -0.85,0 0,9.645 1.919,0 c 0.718,0 1.254,-0.23 1.607,-0.691 0.354,-0.46 0.531,-1.156 0.531,-2.087 0,-0.607 -0.092,-1.111 -0.276,-1.511 -0.184,-0.401 -0.451,-0.678 -0.802,-0.834 l 0,0 z m -2.129,4.051 0,-3.424 1.069,0 c 0.409,0 0.719,0.145 0.928,0.436 0.209,0.291 0.313,0.718 0.313,1.282 0,0.565 -0.104,0.99 -0.313,1.277 -0.209,0.286 -0.519,0.429 -0.928,0.429 l -1.069,0"
         style="fill:#000000;fill-opacity:1;fill-rule:nonzero;stroke:none"
         id="path4399" /><path
         d="m 180.163,131.288 c -0.625,0 -1.059,-0.109 -1.3,-0.329 -0.241,-0.22 -0.362,-0.595 -0.362,-1.125 0,-0.422 0.09,-0.756 0.272,-1.004 0.181,-0.248 0.427,-0.371 0.738,-0.371 0.429,0 0.773,0.233 1.033,0.7 0.26,0.468 0.389,1.089 0.389,1.864 l 0,0.265 -0.77,0 z m 1.544,0.491 0,-4.128 -0.774,0 0,1.098 c -0.176,-0.439 -0.397,-0.763 -0.66,-0.972 -0.264,-0.209 -0.587,-0.314 -0.968,-0.314 -0.483,0 -0.866,0.208 -1.151,0.624 -0.285,0.416 -0.427,0.972 -0.427,1.67 0,0.814 0.177,1.428 0.532,1.841 0.355,0.414 0.884,0.62 1.589,0.62 l 1.085,0 0,0.117 c 0,0.547 -0.117,0.97 -0.351,1.269 -0.234,0.3 -0.563,0.45 -0.987,0.45 -0.269,0 -0.531,-0.05 -0.787,-0.149 -0.255,-0.099 -0.501,-0.248 -0.736,-0.446 l 0,1.098 c 0.283,0.168 0.558,0.294 0.824,0.378 0.267,0.084 0.527,0.126 0.779,0.126 0.682,0 1.191,-0.271 1.527,-0.814 0.337,-0.543 0.505,-1.365 0.505,-2.468 l 0,0"
         style="fill:#000000;fill-opacity:1;fill-rule:nonzero;stroke:none"
         id="path4401" /><path
         d="m 186.311,134.673 0,-1.123 c -0.219,0.172 -0.447,0.301 -0.682,0.387 -0.236,0.086 -0.48,0.129 -0.732,0.129 -0.385,0 -0.673,-0.09 -0.865,-0.271 -0.192,-0.181 -0.288,-0.452 -0.288,-0.814 0,-0.276 0.068,-0.492 0.206,-0.649 0.138,-0.158 0.414,-0.307 0.829,-0.45 l 0.265,-0.09 c 0.55,-0.181 0.94,-0.436 1.172,-0.765 0.231,-0.33 0.347,-0.79 0.347,-1.38 0,-0.672 -0.173,-1.204 -0.52,-1.595 -0.346,-0.393 -0.822,-0.589 -1.428,-0.589 -0.253,0 -0.515,0.038 -0.789,0.114 -0.274,0.075 -0.562,0.188 -0.865,0.339 l 0,1.227 c 0.286,-0.228 0.568,-0.399 0.846,-0.513 0.278,-0.114 0.553,-0.171 0.825,-0.171 0.364,0 0.645,0.095 0.841,0.287 0.197,0.192 0.295,0.462 0.295,0.811 0,0.323 -0.071,0.57 -0.213,0.743 -0.141,0.172 -0.452,0.338 -0.932,0.497 l -0.269,0.097 c -0.48,0.155 -0.826,0.393 -1.039,0.714 -0.213,0.321 -0.32,0.761 -0.32,1.321 0,0.681 0.157,1.206 0.471,1.576 0.314,0.371 0.761,0.556 1.338,0.556 0.287,0 0.556,-0.032 0.808,-0.097 0.252,-0.064 0.486,-0.161 0.699,-0.291 l 0,0"
         style="fill:#000000;fill-opacity:1;fill-rule:nonzero;stroke:none"
         id="path4403" /><path
         d="m 188.566,136.941 0,-2.054 1.595,0 0,-0.924 -1.595,0 0,-3.928 c 0,-0.59 0.053,-0.969 0.158,-1.137 0.105,-0.168 0.319,-0.252 0.642,-0.252 l 0.795,0 0,-0.995 -0.795,0 c -0.598,0 -1.011,0.171 -1.237,0.513 -0.228,0.343 -0.341,0.966 -0.341,1.871 l 0,3.928 -0.568,0 0,0.924 0.568,0 0,2.054 0.778,0"
         style="fill:#000000;fill-opacity:1;fill-rule:nonzero;stroke:none"
         id="path4405" /><path
         d="m 208.466,140.34 6.061,0 0,-1.201 -4.634,0 0,-3.108 4.182,0 0,-1.2 -4.182,0 0,-5.036 -1.427,0 0,10.545"
         style="fill:#000000;fill-opacity:1;fill-rule:nonzero;stroke:none"
         id="path4407" /><path
         d="m 223.123,139.994 0,-1.392 c -0.542,0.259 -1.053,0.453 -1.533,0.58 -0.48,0.127 -0.944,0.19 -1.392,0.19 -0.777,0 -1.376,-0.151 -1.797,-0.452 -0.422,-0.301 -0.632,-0.73 -0.632,-1.285 0,-0.466 0.14,-0.818 0.42,-1.056 0.28,-0.238 0.811,-0.43 1.593,-0.576 l 0.861,-0.176 c 1.065,-0.203 1.85,-0.559 2.356,-1.07 0.506,-0.511 0.759,-1.195 0.759,-2.052 0,-1.022 -0.342,-1.797 -1.028,-2.324 -0.685,-0.527 -1.689,-0.791 -3.012,-0.791 -0.499,0 -1.03,0.056 -1.593,0.169 -0.563,0.113 -1.145,0.28 -1.748,0.502 l 0,1.469 c 0.579,-0.325 1.147,-0.57 1.702,-0.735 0.556,-0.165 1.102,-0.247 1.639,-0.247 0.815,0 1.443,0.16 1.886,0.481 0.442,0.32 0.664,0.776 0.664,1.37 0,0.518 -0.159,0.922 -0.477,1.215 -0.318,0.291 -0.839,0.511 -1.564,0.656 l -0.869,0.17 c -1.064,0.212 -1.834,0.544 -2.31,0.996 -0.475,0.452 -0.713,1.08 -0.713,1.886 0,0.932 0.328,1.667 0.985,2.203 0.657,0.537 1.562,0.806 2.716,0.806 0.494,0 0.998,-0.045 1.512,-0.135 0.513,-0.089 1.038,-0.223 1.575,-0.402 l 0,0"
         style="fill:#000000;fill-opacity:1;fill-rule:nonzero;stroke:none"
         id="path4409" /><path
         d="m 242.736,140.644 0,-3.963 1.794,0 c 0.664,0 1.177,0.172 1.54,0.516 0.362,0.344 0.544,0.833 0.544,1.469 0,0.631 -0.182,1.118 -0.544,1.462 -0.363,0.344 -0.876,0.516 -1.54,0.516 l -1.794,0 z m -1.427,1.172 3.221,0 c 1.182,0 2.075,-0.267 2.68,-0.802 0.605,-0.534 0.908,-1.317 0.908,-2.348 0,-1.041 -0.303,-1.827 -0.908,-2.359 -0.605,-0.532 -1.498,-0.798 -2.68,-0.798 l -1.794,0 0,-4.238 -1.427,0 0,10.545"
         style="fill:#000000;fill-opacity:1;fill-rule:nonzero;stroke:none"
         id="path4411" /><path
         d="m 250.039,141.816 6.06,0 0,-1.201 -4.633,0 0,-3.108 4.181,0 0,-1.2 -4.181,0 0,-5.036 -1.427,0 0,10.545"
         style="fill:#000000;fill-opacity:1;fill-rule:nonzero;stroke:none"
         id="path4413" /><path
         d="m 262.654,140.848 c -1.036,0 -1.859,-0.386 -2.468,-1.158 -0.61,-0.772 -0.915,-1.825 -0.915,-3.157 0,-1.328 0.305,-2.378 0.915,-3.151 0.609,-0.772 1.432,-1.158 2.468,-1.158 1.036,0 1.857,0.386 2.462,1.158 0.605,0.773 0.907,1.823 0.907,3.151 0,1.332 -0.302,2.385 -0.907,3.157 -0.605,0.772 -1.426,1.158 -2.462,1.158 l 0,0 z m 0,1.159 c 1.478,0 2.66,-0.496 3.546,-1.487 0.885,-0.991 1.328,-2.32 1.328,-3.987 0,-1.662 -0.443,-2.989 -1.328,-3.98 -0.886,-0.992 -2.068,-1.487 -3.546,-1.487 -1.483,0 -2.669,0.494 -3.556,1.483 -0.888,0.989 -1.332,2.317 -1.332,3.984 0,1.667 0.444,2.996 1.332,3.987 0.887,0.991 2.073,1.487 3.556,1.487 l 0,0"
         style="fill:#000000;fill-opacity:1;fill-rule:nonzero;stroke:none"
         id="path4415" /><path
         d="m 83.0102,164.805 25.1863,0 0,22.9723 -25.1863,0 0,-22.9723 z"
         style="fill:#ffffff;fill-opacity:1;fill-rule:nonzero;stroke:none"
         id="path4417" /><path
         d="m 83.0102,164.805 25.1863,0 0,22.9723 -25.1863,0 0,-22.9723 z"
         style="fill:none;stroke:#000000;stroke-width:0.51662403;stroke-linecap:butt;stroke-linejoin:miter;stroke-miterlimit:10;stroke-opacity:1;stroke-dasharray:none"
         id="path4419" /><path
         d="m 89.1121,172.97 -2.3004,6.026 0.8516,0 1.909,-5.074 1.9132,5.074 0.8477,0 -2.2969,-6.026 -0.9242,0"
         style="fill:#000000;fill-opacity:1;fill-rule:nonzero;stroke:none"
         id="path4421" /><path
         d="m 94.0242,175.847 0,-2.207 1.3078,0 c 0.4383,0 0.7633,0.09 0.9746,0.272 0.2114,0.182 0.3168,0.459 0.3168,0.834 0,0.376 -0.1054,0.654 -0.3168,0.833 -0.2113,0.179 -0.5363,0.268 -0.9746,0.268 l -1.3078,0 z m 0,2.479 0,-1.817 1.2067,0 c 0.3984,0 0.6949,0.075 0.8902,0.224 0.1949,0.15 0.2926,0.378 0.2926,0.685 0,0.303 -0.0977,0.531 -0.2926,0.682 -0.1953,0.15 -0.4918,0.226 -0.8902,0.226 l -1.2067,0 z m -0.8152,0.67 2.0824,0 c 0.6215,0 1.1008,-0.13 1.4371,-0.388 0.3363,-0.258 0.5043,-0.626 0.5043,-1.102 0,-0.368 -0.0859,-0.661 -0.2582,-0.879 -0.1723,-0.218 -0.425,-0.354 -0.759,-0.408 0.4012,-0.086 0.7125,-0.266 0.9344,-0.539 0.2223,-0.273 0.3332,-0.614 0.3332,-1.023 0,-0.538 -0.1832,-0.954 -0.5488,-1.247 -0.366,-0.294 -0.8867,-0.44 -1.5621,-0.44 l -2.1633,0 0,6.026"
         style="fill:#000000;fill-opacity:1;fill-rule:nonzero;stroke:none"
         id="path4423" /><path
         d="m 101.321,178.443 c -0.591,0 -1.062,-0.221 -1.4101,-0.662 -0.3484,-0.442 -0.5226,-1.043 -0.5226,-1.804 0,-0.759 0.1742,-1.359 0.5226,-1.8 0.3481,-0.442 0.8191,-0.663 1.4101,-0.663 0.592,0 1.061,0.221 1.407,0.663 0.346,0.441 0.519,1.041 0.519,1.8 0,0.761 -0.173,1.362 -0.519,1.804 -0.346,0.441 -0.815,0.662 -1.407,0.662 l 0,0 z m 0,0.662 c 0.845,0 1.521,-0.284 2.027,-0.85 0.506,-0.566 0.758,-1.326 0.758,-2.278 0,-0.95 -0.252,-1.708 -0.758,-2.275 -0.506,-0.566 -1.182,-0.849 -2.027,-0.849 -0.847,0 -1.5245,0.282 -2.0315,0.847 -0.5075,0.565 -0.761,1.324 -0.761,2.277 0,0.952 0.2535,1.712 0.761,2.278 0.507,0.566 1.1845,0.85 2.0315,0.85 l 0,0"
         style="fill:#000000;fill-opacity:1;fill-rule:nonzero;stroke:none"
         id="path4425" /><path
         d="m 84.2844,211.945 0,1.619 -1.3321,0 0,0.67 2.1395,0 0,-2.588 c -0.3148,-0.223 -0.6621,-0.392 -1.0414,-0.506 -0.3793,-0.114 -0.7844,-0.172 -1.2149,-0.172 -0.9417,0 -1.6785,0.276 -2.2097,0.826 -0.5317,0.55 -0.7973,1.317 -0.7973,2.299 0,0.984 0.2656,1.752 0.7973,2.302 0.5312,0.55 1.268,0.825 2.2097,0.825 0.3926,0 0.7661,-0.048 1.12,-0.145 0.3539,-0.096 0.68,-0.239 0.9789,-0.428 l 0,-0.867 c -0.3016,0.255 -0.6219,0.448 -0.961,0.577 -0.3386,0.129 -0.6953,0.193 -1.0695,0.193 -0.7371,0 -1.2906,-0.205 -1.6605,-0.617 -0.3704,-0.412 -0.5551,-1.025 -0.5551,-1.84 0,-0.813 0.1847,-1.425 0.5551,-1.837 0.3699,-0.411 0.9234,-0.617 1.6605,-0.617 0.2879,0 0.5449,0.024 0.7711,0.074 0.2258,0.05 0.4293,0.127 0.6094,0.232 l 0,0"
         style="fill:#000000;fill-opacity:1;fill-rule:nonzero;stroke:none"
         id="path4427" /><path
         d="m 89.1723,214.912 c -0.0836,0.048 -0.1743,0.084 -0.2727,0.107 -0.098,0.023 -0.2062,0.034 -0.3246,0.034 -0.4199,0 -0.7422,-0.137 -0.9668,-0.41 -0.2246,-0.273 -0.3371,-0.665 -0.3371,-1.176 l 0,-2.381 -0.7465,0 0,4.52 0.7465,0 0,-0.702 c 0.1562,0.274 0.3594,0.478 0.6094,0.611 0.2504,0.133 0.5543,0.2 0.9121,0.2 0.0512,0 0.1078,-0.003 0.1695,-0.01 0.0621,-0.007 0.1309,-0.017 0.2059,-0.03 l 0.0043,-0.763"
         style="fill:#000000;fill-opacity:1;fill-rule:nonzero;stroke:none"
         id="path4429" /><path
         d="m 92.0137,213.358 c -0.6,0 -1.016,-0.069 -1.2473,-0.206 -0.2312,-0.137 -0.3473,-0.371 -0.3473,-0.702 0,-0.264 0.0871,-0.473 0.2606,-0.628 0.1734,-0.154 0.4098,-0.232 0.7082,-0.232 0.4117,0 0.7422,0.146 0.991,0.438 0.2488,0.292 0.3734,0.68 0.3734,1.165 l 0,0.165 -0.7386,0 z m 1.4812,0.307 0,-2.579 -0.7426,0 0,0.686 c -0.1695,-0.275 -0.3808,-0.477 -0.6339,-0.608 -0.2528,-0.13 -0.5622,-0.196 -0.9282,-0.196 -0.4629,0 -0.8308,0.13 -1.1039,0.39 -0.273,0.26 -0.4097,0.608 -0.4097,1.043 0,0.509 0.1703,0.892 0.5105,1.151 0.3406,0.258 0.8484,0.387 1.5238,0.387 l 1.0414,0 0,0.073 c 0,0.342 -0.1125,0.606 -0.3371,0.793 -0.2246,0.187 -0.5402,0.281 -0.9464,0.281 -0.2583,0 -0.5098,-0.032 -0.7547,-0.093 -0.245,-0.063 -0.4805,-0.155 -0.7063,-0.279 l 0,0.686 c 0.2715,0.105 0.5352,0.184 0.791,0.236 0.2555,0.053 0.5043,0.079 0.7465,0.079 0.6539,0 1.1422,-0.17 1.4652,-0.508 0.3231,-0.339 0.4844,-0.853 0.4844,-1.542 l 0,0"
         style="fill:#000000;fill-opacity:1;fill-rule:nonzero;stroke:none"
         id="path4431" /><path
         d="m 95.7469,211.764 0,-2.398 -0.7465,0 0,6.24 0.7465,0 0,-0.686 c 0.1562,0.269 0.3531,0.469 0.5914,0.599 0.2383,0.131 0.5226,0.196 0.8535,0.196 0.5492,0 0.9949,-0.218 1.3383,-0.654 0.3429,-0.436 0.5144,-1.009 0.5144,-1.719 0,-0.711 -0.1715,-1.284 -0.5144,-1.72 -0.3434,-0.436 -0.7891,-0.654 -1.3383,-0.654 -0.3309,0 -0.6152,0.066 -0.8535,0.196 -0.2383,0.131 -0.4352,0.331 -0.5914,0.6 l 0,0 z m 2.5265,1.578 c 0,0.546 -0.1121,0.974 -0.3367,1.285 -0.2246,0.311 -0.5336,0.466 -0.9265,0.466 -0.3926,0 -0.7016,-0.155 -0.9262,-0.466 -0.2246,-0.311 -0.3371,-0.739 -0.3371,-1.285 0,-0.546 0.1125,-0.975 0.3371,-1.286 0.2246,-0.311 0.5336,-0.466 0.9262,-0.466 0.3929,0 0.7019,0.155 0.9265,0.466 0.2246,0.311 0.3367,0.74 0.3367,1.286 l 0,0"
         style="fill:#000000;fill-opacity:1;fill-rule:nonzero;stroke:none"
         id="path4433" /><path
         d="m 104.033,213.814 0,-2.728 -0.742,0 0,2.704 c 0,0.428 -0.084,0.748 -0.251,0.96 -0.167,0.213 -0.417,0.319 -0.751,0.319 -0.4,0 -0.716,-0.128 -0.948,-0.383 -0.231,-0.256 -0.347,-0.604 -0.347,-1.045 l 0,-2.555 -0.747,0 0,6.28 0.747,0 0,-2.462 c 0.177,0.271 0.387,0.475 0.627,0.609 0.241,0.135 0.519,0.202 0.834,0.202 0.519,0 0.912,-0.161 1.179,-0.482 0.266,-0.322 0.399,-0.795 0.399,-1.419 l 0,0"
         style="fill:#000000;fill-opacity:1;fill-rule:nonzero;stroke:none"
         id="path4435" /><path
         d="m 105.523,215.606 0.742,0 0,-4.52 -0.742,0 0,4.52 z m 0,1.76 0.742,0 0,-0.941 -0.742,0 0,0.941"
         style="fill:#000000;fill-opacity:1;fill-rule:nonzero;stroke:none"
         id="path4437" /><path
         d="m 111.068,215.432 0,-0.694 c -0.21,0.116 -0.42,0.203 -0.632,0.26 -0.211,0.059 -0.424,0.088 -0.639,0.088 -0.482,0 -0.856,-0.153 -1.122,-0.459 -0.267,-0.305 -0.4,-0.734 -0.4,-1.285 0,-0.552 0.133,-0.98 0.4,-1.286 0.266,-0.305 0.64,-0.458 1.122,-0.458 0.215,0 0.428,0.029 0.639,0.087 0.212,0.058 0.422,0.145 0.632,0.26 l 0,-0.686 c -0.207,-0.097 -0.422,-0.17 -0.644,-0.218 -0.222,-0.048 -0.458,-0.073 -0.708,-0.073 -0.681,0 -1.221,0.214 -1.623,0.642 -0.4,0.428 -0.601,1.005 -0.601,1.732 0,0.737 0.203,1.317 0.608,1.739 0.405,0.423 0.959,0.634 1.664,0.634 0.229,0 0.452,-0.024 0.67,-0.07 0.218,-0.048 0.43,-0.118 0.634,-0.213 l 0,0"
         style="fill:#000000;fill-opacity:1;fill-rule:nonzero;stroke:none"
         id="path4439" /><path
         d="m 115.25,215.473 0,-0.702 c -0.21,0.107 -0.428,0.188 -0.654,0.242 -0.226,0.053 -0.46,0.08 -0.703,0.08 -0.368,0 -0.645,-0.056 -0.829,-0.169 -0.184,-0.113 -0.276,-0.283 -0.276,-0.509 0,-0.172 0.066,-0.307 0.197,-0.405 0.132,-0.098 0.397,-0.192 0.795,-0.281 l 0.255,-0.056 c 0.527,-0.113 0.902,-0.273 1.124,-0.478 0.222,-0.206 0.333,-0.493 0.333,-0.862 0,-0.42 -0.166,-0.752 -0.499,-0.997 -0.332,-0.245 -0.789,-0.368 -1.37,-0.368 -0.242,0 -0.494,0.024 -0.757,0.071 -0.262,0.047 -0.539,0.118 -0.829,0.212 l 0,0.767 c 0.274,-0.143 0.545,-0.25 0.811,-0.321 0.266,-0.071 0.53,-0.107 0.791,-0.107 0.35,0 0.619,0.06 0.807,0.18 0.189,0.119 0.283,0.288 0.283,0.506 0,0.202 -0.068,0.357 -0.204,0.464 -0.136,0.108 -0.434,0.212 -0.894,0.311 l -0.258,0.061 c -0.461,0.097 -0.793,0.245 -0.997,0.446 -0.205,0.2 -0.307,0.475 -0.307,0.825 0,0.425 0.151,0.753 0.452,0.985 0.302,0.231 0.729,0.347 1.284,0.347 0.274,0 0.533,-0.02 0.775,-0.061 0.242,-0.04 0.465,-0.1 0.67,-0.181 l 0,0"
         style="fill:#000000;fill-opacity:1;fill-rule:nonzero;stroke:none"
         id="path4441" /><path
         d="m 122.829,214.738 c 0.186,0.334 0.408,0.58 0.666,0.739 0.259,0.159 0.563,0.238 0.912,0.238 0.472,0 0.835,-0.165 1.09,-0.494 0.256,-0.33 0.384,-0.799 0.384,-1.407 l 0,-2.728 -0.747,0 0,2.704 c 0,0.433 -0.077,0.755 -0.23,0.964 -0.153,0.21 -0.388,0.315 -0.702,0.315 -0.385,0 -0.689,-0.128 -0.913,-0.383 -0.223,-0.256 -0.334,-0.604 -0.334,-1.045 l 0,-2.555 -0.747,0 0,2.704 c 0,0.436 -0.077,0.758 -0.23,0.966 -0.153,0.209 -0.39,0.313 -0.71,0.313 -0.38,0 -0.681,-0.128 -0.905,-0.385 -0.223,-0.257 -0.334,-0.605 -0.334,-1.043 l 0,-2.555 -0.747,0 0,4.52 0.747,0 0,-0.702 c 0.169,0.277 0.372,0.482 0.609,0.613 0.237,0.132 0.518,0.198 0.843,0.198 0.329,0 0.608,-0.083 0.838,-0.25 0.23,-0.167 0.4,-0.409 0.51,-0.727 l 0,0"
         style="fill:#000000;fill-opacity:1;fill-rule:nonzero;stroke:none"
         id="path4443" /><path
         d="m 131.233,213.532 0,-0.364 -3.415,0 c 0.032,-0.511 0.186,-0.9 0.462,-1.168 0.276,-0.268 0.66,-0.402 1.152,-0.402 0.286,0 0.562,0.035 0.83,0.105 0.268,0.07 0.533,0.175 0.797,0.315 l 0,-0.702 c -0.266,-0.113 -0.539,-0.2 -0.819,-0.259 -0.28,-0.059 -0.564,-0.089 -0.852,-0.089 -0.721,0 -1.292,0.211 -1.713,0.63 -0.421,0.42 -0.632,0.988 -0.632,1.704 0,0.739 0.2,1.327 0.6,1.761 0.399,0.435 0.938,0.652 1.616,0.652 0.608,0 1.089,-0.196 1.443,-0.587 0.354,-0.392 0.531,-0.924 0.531,-1.596 l 0,0 z m -0.743,0.218 c -0.005,0.406 -0.119,0.73 -0.341,0.972 -0.222,0.242 -0.516,0.364 -0.882,0.364 -0.414,0 -0.746,-0.118 -0.995,-0.352 -0.249,-0.234 -0.392,-0.563 -0.43,-0.989 l 2.648,0.005"
         style="fill:#000000;fill-opacity:1;fill-rule:nonzero;stroke:none"
         id="path4445" /><path
         d="m 135.971,214.738 c 0.186,0.334 0.408,0.58 0.666,0.739 0.258,0.159 0.562,0.238 0.912,0.238 0.471,0 0.834,-0.165 1.09,-0.494 0.256,-0.33 0.383,-0.799 0.383,-1.407 l 0,-2.728 -0.746,0 0,2.704 c 0,0.433 -0.077,0.755 -0.23,0.964 -0.154,0.21 -0.388,0.315 -0.703,0.315 -0.384,0 -0.688,-0.128 -0.912,-0.383 -0.223,-0.256 -0.335,-0.604 -0.335,-1.045 l 0,-2.555 -0.746,0 0,2.704 c 0,0.436 -0.077,0.758 -0.23,0.966 -0.154,0.209 -0.391,0.313 -0.711,0.313 -0.379,0 -0.68,-0.128 -0.904,-0.385 -0.223,-0.257 -0.335,-0.605 -0.335,-1.043 l 0,-2.555 -0.747,0 0,4.52 0.747,0 0,-0.702 c 0.169,0.277 0.373,0.482 0.609,0.613 0.237,0.132 0.518,0.198 0.844,0.198 0.328,0 0.607,-0.083 0.838,-0.25 0.23,-0.167 0.4,-0.409 0.51,-0.727 l 0,0"
         style="fill:#000000;fill-opacity:1;fill-rule:nonzero;stroke:none"
         id="path4447" /><path
         d="m 142.259,215.086 c -0.398,0 -0.713,-0.156 -0.944,-0.467 -0.231,-0.31 -0.347,-0.737 -0.347,-1.277 0,-0.541 0.115,-0.967 0.345,-1.278 0.23,-0.31 0.546,-0.466 0.946,-0.466 0.396,0 0.709,0.156 0.941,0.468 0.231,0.313 0.347,0.738 0.347,1.276 0,0.535 -0.116,0.96 -0.347,1.273 -0.232,0.314 -0.545,0.471 -0.941,0.471 l 0,0 z m 0,0.629 c 0.646,0 1.153,-0.21 1.522,-0.629 0.369,-0.42 0.553,-1.002 0.553,-1.744 0,-0.74 -0.184,-1.321 -0.553,-1.742 -0.369,-0.421 -0.876,-0.632 -1.522,-0.632 -0.648,0 -1.156,0.211 -1.523,0.632 -0.368,0.421 -0.551,1.002 -0.551,1.742 0,0.742 0.183,1.324 0.551,1.744 0.367,0.419 0.875,0.629 1.523,0.629 l 0,0"
         style="fill:#000000;fill-opacity:1;fill-rule:nonzero;stroke:none"
         id="path4449" /><path
         d="m 148.18,214.912 c -0.083,0.048 -0.174,0.084 -0.272,0.107 -0.098,0.023 -0.206,0.034 -0.325,0.034 -0.42,0 -0.742,-0.137 -0.967,-0.41 -0.224,-0.273 -0.337,-0.665 -0.337,-1.176 l 0,-2.381 -0.746,0 0,4.52 0.746,0 0,-0.702 c 0.157,0.274 0.36,0.478 0.61,0.611 0.25,0.133 0.554,0.2 0.912,0.2 0.051,0 0.108,-0.003 0.169,-0.01 0.062,-0.007 0.131,-0.017 0.206,-0.03 l 0.004,-0.763"
         style="fill:#000000;fill-opacity:1;fill-rule:nonzero;stroke:none"
         id="path4451" /><path
         d="m 150.848,210.666 c -0.21,-0.538 -0.414,-0.889 -0.613,-1.054 -0.199,-0.164 -0.466,-0.246 -0.799,-0.246 l -0.594,0 0,0.622 0.436,0 c 0.205,0 0.363,0.048 0.476,0.145 0.114,0.097 0.239,0.326 0.376,0.686 l 0.133,0.339 -1.828,4.448 0.787,0 1.412,-3.536 1.413,3.536 0.787,0 -1.986,-4.94"
         style="fill:#000000;fill-opacity:1;fill-rule:nonzero;stroke:none"
         id="path4453" /><path
         d="m 84.902,165.589 0,-31.735 7.3804,0"
         style="fill:none;stroke:#000000;stroke-width:1.54987001;stroke-linecap:butt;stroke-linejoin:miter;stroke-miterlimit:10;stroke-opacity:1;stroke-dasharray:none"
         id="path4455" /><path
         d="m 90.4223,133.854 -1.5496,-1.55 5.4246,1.55 -5.4246,1.55 1.5496,-1.55"
         style="fill:#000000;fill-opacity:1;fill-rule:evenodd;stroke:none"
         id="path4457" /><path
         d="m 90.4223,133.854 -1.5496,-1.55 5.4246,1.55 -5.4246,1.55 1.5496,-1.55 z"
         style="fill:none;stroke:#000000;stroke-width:0.38746801;stroke-linecap:butt;stroke-linejoin:miter;stroke-miterlimit:10;stroke-opacity:1;stroke-dasharray:none"
         id="path4459" /><path
         d="m 116.722,192.968 -0.483,-42.634"
         style="fill:none;stroke:#000000;stroke-width:1.54987001;stroke-linecap:butt;stroke-linejoin:miter;stroke-miterlimit:10;stroke-opacity:1;stroke-dasharray:none"
         id="path4461" /><path
         d="m 116.261,152.193 -1.533,1.568 1.488,-5.442 1.612,5.407 -1.567,-1.533"
         style="fill:#000000;fill-opacity:1;fill-rule:evenodd;stroke:none"
         id="path4463" /><path
         d="m 116.261,152.193 -1.533,1.568 1.488,-5.442 1.612,5.407 -1.567,-1.533 z"
         style="fill:none;stroke:#000000;stroke-width:0.38746801;stroke-linecap:butt;stroke-linejoin:miter;stroke-miterlimit:10;stroke-opacity:1;stroke-dasharray:none"
         id="path4465" /><path
         d="m 119.607,135.33 13.518,0"
         style="fill:none;stroke:#000000;stroke-width:1.54987001;stroke-linecap:butt;stroke-linejoin:miter;stroke-miterlimit:10;stroke-opacity:1;stroke-dasharray:none"
         id="path4467" /><path
         d="m 131.265,135.33 -1.549,-1.55 5.424,1.55 -5.424,1.55 1.549,-1.55"
         style="fill:#000000;fill-opacity:1;fill-rule:evenodd;stroke:none"
         id="path4469" /><path
         d="m 131.265,135.33 -1.549,-1.55 5.424,1.55 -5.424,1.55 1.549,-1.55 z"
         style="fill:none;stroke:#000000;stroke-width:0.38746801;stroke-linecap:butt;stroke-linejoin:miter;stroke-miterlimit:10;stroke-opacity:1;stroke-dasharray:none"
         id="path4471" /><path
         d="m 134.673,165.174 25.1863,0 0,22.9723 -25.1863,0 0,-22.9723 z"
         style="fill:#ffffff;fill-opacity:1;fill-rule:nonzero;stroke:none"
         id="path4473" /><path
         d="m 134.673,165.174 25.1863,0 0,22.9723 -25.1863,0 0,-22.9723 z"
         style="fill:none;stroke:#000000;stroke-width:0.51662403;stroke-linecap:butt;stroke-linejoin:miter;stroke-miterlimit:10;stroke-opacity:1;stroke-dasharray:none"
         id="path4475" /><path
         d="m 138.996,178.939 3.81,0 0,-0.686 -2.995,0 0,-1.784 2.87,0 0,-0.687 -2.87,0 0,-2.183 3.068,0 0,-0.686 -3.883,0 0,6.026"
         style="fill:#000000;fill-opacity:1;fill-rule:nonzero;stroke:none"
         id="path4477" /><path
         d="m 145.042,175.791 0,-2.208 1.308,0 c 0.439,0 0.763,0.091 0.975,0.272 0.211,0.182 0.316,0.46 0.316,0.834 0,0.377 -0.105,0.654 -0.316,0.833 -0.212,0.179 -0.536,0.269 -0.975,0.269 l -1.308,0 z m 0,2.478 0,-1.816 1.207,0 c 0.398,0 0.695,0.074 0.89,0.224 0.195,0.149 0.293,0.377 0.293,0.684 0,0.304 -0.098,0.531 -0.293,0.682 -0.195,0.15 -0.492,0.226 -0.89,0.226 l -1.207,0 z m -0.815,0.67 2.083,0 c 0.621,0 1.1,-0.129 1.436,-0.388 0.337,-0.258 0.505,-0.625 0.505,-1.101 0,-0.369 -0.086,-0.662 -0.258,-0.88 -0.173,-0.218 -0.425,-0.354 -0.759,-0.408 0.401,-0.086 0.712,-0.266 0.934,-0.539 0.222,-0.273 0.333,-0.614 0.333,-1.023 0,-0.538 -0.183,-0.954 -0.549,-1.247 -0.366,-0.294 -0.886,-0.44 -1.562,-0.44 l -2.163,0 0,6.026"
         style="fill:#000000;fill-opacity:1;fill-rule:nonzero;stroke:none"
         id="path4479" /><path
         d="m 152.339,178.386 c -0.591,0 -1.062,-0.221 -1.41,-0.662 -0.349,-0.441 -0.523,-1.043 -0.523,-1.804 0,-0.759 0.174,-1.359 0.523,-1.8 0.348,-0.441 0.819,-0.662 1.41,-0.662 0.593,0 1.061,0.221 1.407,0.662 0.346,0.441 0.519,1.041 0.519,1.8 0,0.761 -0.173,1.363 -0.519,1.804 -0.346,0.441 -0.814,0.662 -1.407,0.662 l 0,0 z m 0,0.662 c 0.845,0 1.521,-0.284 2.027,-0.85 0.505,-0.566 0.759,-1.326 0.759,-2.278 0,-0.95 -0.254,-1.708 -0.759,-2.275 -0.506,-0.566 -1.182,-0.849 -2.027,-0.849 -0.847,0 -1.525,0.283 -2.032,0.847 -0.507,0.566 -0.761,1.324 -0.761,2.277 0,0.952 0.254,1.712 0.761,2.278 0.507,0.566 1.185,0.85 2.032,0.85 l 0,0"
         style="fill:#000000;fill-opacity:1;fill-rule:nonzero;stroke:none"
         id="path4481" /><path
         d="m 145.79,165.22 0,-15.867"
         style="fill:none;stroke:#000000;stroke-width:1.54987001;stroke-linecap:butt;stroke-linejoin:miter;stroke-miterlimit:10;stroke-opacity:1;stroke-dasharray:none"
         id="path4483" /><path
         d="m 145.79,151.212 -1.55,1.55 1.55,-5.424 1.55,5.424 -1.55,-1.55"
         style="fill:#000000;fill-opacity:1;fill-rule:evenodd;stroke:none"
         id="path4485" /><path
         d="m 145.79,151.212 -1.55,1.55 1.55,-5.424 1.55,5.424 -1.55,-1.55 z"
         style="fill:none;stroke:#000000;stroke-width:0.38746801;stroke-linecap:butt;stroke-linejoin:miter;stroke-miterlimit:10;stroke-opacity:1;stroke-dasharray:none"
         id="path4487" /><path
         d="m 158.705,136.068 11.071,0"
         style="fill:none;stroke:#000000;stroke-width:1.54987001;stroke-linecap:butt;stroke-linejoin:miter;stroke-miterlimit:10;stroke-opacity:1;stroke-dasharray:none"
         id="path4489" /><path
         d="m 167.916,136.068 -1.55,-1.55 5.425,1.55 -5.425,1.55 1.55,-1.55"
         style="fill:#000000;fill-opacity:1;fill-rule:evenodd;stroke:none"
         id="path4491" /><path
         d="m 167.916,136.068 -1.55,-1.55 5.425,1.55 -5.425,1.55 1.55,-1.55 z"
         style="fill:none;stroke:#000000;stroke-width:0.38746801;stroke-linecap:butt;stroke-linejoin:miter;stroke-miterlimit:10;stroke-opacity:1;stroke-dasharray:none"
         id="path4493" /><path
         d="m 191.917,134.592 12.916,0"
         style="fill:none;stroke:#000000;stroke-width:1.54987001;stroke-linecap:butt;stroke-linejoin:miter;stroke-miterlimit:10;stroke-opacity:1;stroke-dasharray:none"
         id="path4495" /><path
         d="m 202.973,134.592 -1.55,-1.55 5.424,1.55 -5.424,1.55 1.55,-1.55"
         style="fill:#000000;fill-opacity:1;fill-rule:evenodd;stroke:none"
         id="path4497" /><path
         d="m 202.973,134.592 -1.55,-1.55 5.424,1.55 -5.424,1.55 1.55,-1.55 z"
         style="fill:none;stroke:#000000;stroke-width:0.38746801;stroke-linecap:butt;stroke-linejoin:miter;stroke-miterlimit:10;stroke-opacity:1;stroke-dasharray:none"
         id="path4499" /><path
         d="M 209.355,192.875 208.986,149.7"
         style="fill:none;stroke:#000000;stroke-width:1.54987001;stroke-linecap:butt;stroke-linejoin:miter;stroke-miterlimit:10;stroke-opacity:1;stroke-dasharray:none"
         id="path4501" /><path
         d="m 209.002,151.56 -1.536,1.563 1.503,-5.438 1.597,5.411 -1.564,-1.536"
         style="fill:#000000;fill-opacity:1;fill-rule:evenodd;stroke:none"
         id="path4503" /><path
         d="m 209.002,151.56 -1.536,1.563 1.503,-5.438 1.597,5.411 -1.564,-1.536 z"
         style="fill:none;stroke:#000000;stroke-width:0.38746801;stroke-linecap:butt;stroke-linejoin:miter;stroke-miterlimit:10;stroke-opacity:1;stroke-dasharray:none"
         id="path4505" /><path
         d="m 255.757,177.029 39.8539,0 0,36.5328 -39.8539,0 0,-36.5328 z"
         style="fill:#ffffff;fill-opacity:1;fill-rule:nonzero;stroke:none"
         id="path4507" /><path
         d="m 255.757,177.029 39.8539,0 0,36.5328 -39.8539,0 0,-36.5328 z"
         style="fill:none;stroke:#000000;stroke-width:0.51662403;stroke-linecap:butt;stroke-linejoin:miter;stroke-miterlimit:10;stroke-opacity:1;stroke-dasharray:none"
         id="path4509" /><path
         d="m 252.067,173.892 39.8539,0 0,36.5328 -39.8539,0 0,-36.5328 z"
         style="fill:#ffffff;fill-opacity:1;fill-rule:nonzero;stroke:none"
         id="path4511" /><path
         d="m 252.067,173.892 39.8539,0 0,36.5328 -39.8539,0 0,-36.5328 z"
         style="fill:none;stroke:#000000;stroke-width:0.51662403;stroke-linecap:butt;stroke-linejoin:miter;stroke-miterlimit:10;stroke-opacity:1;stroke-dasharray:none"
         id="path4513" /><path
         d="m 248.746,170.571 39.8539,0 0,36.5328 -39.8539,0 0,-36.5328 z"
         style="fill:#ffffff;fill-opacity:1;fill-rule:nonzero;stroke:none"
         id="path4515" /><path
         d="m 248.746,170.571 39.8539,0 0,36.5328 -39.8539,0 0,-36.5328 z"
         style="fill:none;stroke:#000000;stroke-width:0.51662403;stroke-linecap:butt;stroke-linejoin:miter;stroke-miterlimit:10;stroke-opacity:1;stroke-dasharray:none"
         id="path4517" /><path
         d="m 245.425,166.881 39.8539,0 0,36.5328 -39.8539,0 0,-36.5328 z"
         style="fill:#ffffff;fill-opacity:1;fill-rule:nonzero;stroke:none"
         id="path4519" /><path
         d="m 245.425,166.881 39.8539,0 0,36.5328 -39.8539,0 0,-36.5328 z"
         style="fill:none;stroke:#000000;stroke-width:0.51662403;stroke-linecap:butt;stroke-linejoin:miter;stroke-miterlimit:10;stroke-opacity:1;stroke-dasharray:none"
         id="path4521" /><path
         d="m 262.768,166.327 -0.369,-16.606"
         style="fill:none;stroke:#000000;stroke-width:1.54987001;stroke-linecap:butt;stroke-linejoin:miter;stroke-miterlimit:10;stroke-opacity:1;stroke-dasharray:none"
         id="path4523" /><path
         d="m 262.441,151.581 -1.515,1.584 1.429,-5.458 1.67,5.389 -1.584,-1.515"
         style="fill:#000000;fill-opacity:1;fill-rule:evenodd;stroke:none"
         id="path4525" /><path
         d="m 262.441,151.581 -1.515,1.584 1.429,-5.458 1.67,5.389 -1.584,-1.515 z"
         style="fill:none;stroke:#000000;stroke-width:0.38746801;stroke-linecap:butt;stroke-linejoin:miter;stroke-miterlimit:10;stroke-opacity:1;stroke-dasharray:none"
         id="path4527" /><path
         d="m 272.363,135.699 8.487,0 0,30.628"
         style="fill:none;stroke:#000000;stroke-width:1.54987001;stroke-linecap:butt;stroke-linejoin:miter;stroke-miterlimit:10;stroke-opacity:1;stroke-dasharray:none"
         id="path4529" /><path
         d="m 280.85,164.468 1.55,-1.55 -1.55,5.424 -1.55,-5.424 1.55,1.55"
         style="fill:#000000;fill-opacity:1;fill-rule:evenodd;stroke:none"
         id="path4531" /><path
         d="m 280.85,164.468 1.55,-1.55 -1.55,5.424 -1.55,-5.424 1.55,1.55 z"
         style="fill:none;stroke:#000000;stroke-width:0.38746801;stroke-linecap:butt;stroke-linejoin:miter;stroke-miterlimit:10;stroke-opacity:1;stroke-dasharray:none"
         id="path4533" /><path
         d="m 256.808,190.157 6.06,0 0,-1.2 -4.634,0 0,-3.108 4.182,0 0,-1.201 -4.182,0 0,-5.036 -1.426,0 0,10.545"
         style="fill:#000000;fill-opacity:1;fill-rule:nonzero;stroke:none"
         id="path4535" /><path
         d="m 266.569,184.648 0,-3.864 2.288,0 c 0.768,0 1.337,0.159 1.706,0.477 0.37,0.318 0.555,0.804 0.555,1.459 0,0.659 -0.185,1.145 -0.555,1.459 -0.369,0.312 -0.938,0.469 -1.706,0.469 l -2.288,0 z m 0,4.337 0,-3.179 2.112,0 c 0.697,0 1.216,0.131 1.557,0.392 0.342,0.262 0.512,0.661 0.512,1.198 0,0.532 -0.17,0.93 -0.512,1.193 -0.341,0.264 -0.86,0.396 -1.557,0.396 l -2.112,0 z m -1.427,1.172 3.645,0 c 1.088,0 1.926,-0.226 2.515,-0.678 0.588,-0.452 0.882,-1.095 0.882,-1.928 0,-0.645 -0.15,-1.158 -0.452,-1.54 -0.301,-0.381 -0.744,-0.619 -1.328,-0.713 0.702,-0.151 1.247,-0.465 1.635,-0.943 0.389,-0.478 0.583,-1.075 0.583,-1.791 0,-0.941 -0.32,-1.669 -0.96,-2.182 -0.641,-0.513 -1.552,-0.77 -2.734,-0.77 l -3.786,0 0,10.545"
         style="fill:#000000;fill-opacity:1;fill-rule:nonzero;stroke:none"
         id="path4537" /><path
         d="m 226.974,135.699 8.856,0"
         style="fill:none;stroke:#000000;stroke-width:1.54987001;stroke-linecap:butt;stroke-linejoin:miter;stroke-miterlimit:10;stroke-opacity:1;stroke-dasharray:none"
         id="path4539" /><path
         d="m 233.97,135.699 -1.55,-1.55 5.425,1.55 -5.425,1.55 1.55,-1.55"
         style="fill:#000000;fill-opacity:1;fill-rule:evenodd;stroke:none"
         id="path4541" /><path
         d="m 233.97,135.699 -1.55,-1.55 5.425,1.55 -5.425,1.55 1.55,-1.55 z"
         style="fill:none;stroke:#000000;stroke-width:0.38746801;stroke-linecap:butt;stroke-linejoin:miter;stroke-miterlimit:10;stroke-opacity:1;stroke-dasharray:none"
         id="path4543" /><path
         d="m 53.9043,194.742 24.3555,0"
         style="fill:none;stroke:#000000;stroke-width:2.06650019;stroke-linecap:butt;stroke-linejoin:miter;stroke-miterlimit:10;stroke-opacity:1;stroke-dasharray:none"
         id="path4545" /><path
         d="m 56.3844,194.742 2.0664,2.066 -7.2328,-2.066 7.2328,-2.067 -2.0664,2.067"
         style="fill:#000000;fill-opacity:1;fill-rule:evenodd;stroke:none"
         id="path4547" /><path
         d="m 56.3844,194.742 2.0664,2.066 -7.2328,-2.066 7.2328,-2.067 -2.0664,2.067 z"
         style="fill:none;stroke:#000000;stroke-width:0.51662403;stroke-linecap:butt;stroke-linejoin:miter;stroke-miterlimit:10;stroke-opacity:1;stroke-dasharray:none"
         id="path4549" /><path
         d="m 75.7797,194.742 -2.0664,-2.067 7.2328,2.067 -7.2328,2.066 2.0664,-2.066"
         style="fill:#000000;fill-opacity:1;fill-rule:evenodd;stroke:none"
         id="path4551" /><path
         d="m 75.7797,194.742 -2.0664,-2.067 7.2328,2.067 -7.2328,2.066 2.0664,-2.066 z"
         style="fill:none;stroke:#000000;stroke-width:0.51662403;stroke-linecap:butt;stroke-linejoin:miter;stroke-miterlimit:10;stroke-opacity:1;stroke-dasharray:none"
         id="path4553" /><path
         d="m 53.9043,141.603 21.034,0.369"
         style="fill:none;stroke:#000000;stroke-width:1.03325009;stroke-linecap:butt;stroke-linejoin:miter;stroke-miterlimit:10;stroke-opacity:1;stroke-dasharray:none"
         id="path4555" /><path
         d="m 70.8062,141.9 -2.03,-2.103 7.1953,2.193 -7.268,1.94 2.1027,-2.03"
         style="fill:#000000;fill-opacity:1;fill-rule:evenodd;stroke:none"
         id="path4557" /><path
         d="m 70.8062,141.9 -2.03,-2.103 7.1953,2.193 -7.268,1.94 2.1027,-2.03 z"
         style="fill:none;stroke:#000000;stroke-width:0.51662403;stroke-linecap:butt;stroke-linejoin:miter;stroke-miterlimit:10;stroke-opacity:1;stroke-dasharray:none"
         id="path4559" /><path
         d="m 295.611,193.266 11.809,0"
         style="fill:none;stroke:#000000;stroke-width:1.54987001;stroke-linecap:butt;stroke-linejoin:miter;stroke-miterlimit:10;stroke-opacity:1;stroke-dasharray:none"
         id="path4561" /><path
         d="m 305.56,193.266 -1.55,-1.55 5.424,1.55 -5.424,1.55 1.55,-1.55"
         style="fill:#000000;fill-opacity:1;fill-rule:evenodd;stroke:none"
         id="path4563" /><path
         d="m 305.56,193.266 -1.55,-1.55 5.424,1.55 -5.424,1.55 1.55,-1.55 z"
         style="fill:none;stroke:#000000;stroke-width:0.38746801;stroke-linecap:butt;stroke-linejoin:miter;stroke-miterlimit:10;stroke-opacity:1;stroke-dasharray:none"
         id="path4565" /><path
         d="m 312.586,184.04 20.6648,0 0,17.3438 -20.6648,0 0,-17.3438 z"
         style="fill:#ffffff;fill-opacity:1;fill-rule:nonzero;stroke:none"
         id="path4567" /><path
         d="m 312.586,184.04 20.6648,0 0,17.3438 -20.6648,0 0,-17.3438 z"
         style="fill:none;stroke:#000000;stroke-width:1.54987001;stroke-linecap:butt;stroke-linejoin:miter;stroke-miterlimit:10;stroke-opacity:1;stroke-dasharray:none"
         id="path4569" /><path
         d="m 322.549,184.04 0,-8.856"
         style="fill:none;stroke:#000000;stroke-width:1.54987001;stroke-linecap:butt;stroke-linejoin:miter;stroke-miterlimit:10;stroke-opacity:1;stroke-dasharray:none"
         id="path4571" /><path
         d="m 314.431,175.184 15.867,0.369"
         style="fill:none;stroke:#000000;stroke-width:1.54987001;stroke-linecap:butt;stroke-linejoin:miter;stroke-miterlimit:10;stroke-opacity:1;stroke-dasharray:none"
         id="path4573" /><path
         d="m 81.207,235.009 0,-1.193 c -0.464,0.222 -0.9019,0.388 -1.3136,0.496 -0.4118,0.109 -0.8094,0.164 -1.1926,0.164 -0.666,0 -1.1797,-0.129 -1.541,-0.388 -0.361,-0.258 -0.5418,-0.625 -0.5418,-1.101 0,-0.4 0.1203,-0.702 0.3601,-0.906 0.2403,-0.203 0.6953,-0.368 1.3653,-0.493 l 0.7386,-0.151 c 0.9121,-0.174 1.5852,-0.48 2.0192,-0.917 0.434,-0.438 0.6508,-1.025 0.6508,-1.759 0,-0.876 -0.2938,-1.54 -0.8809,-1.992 -0.5871,-0.452 -1.4481,-0.678 -2.582,-0.678 -0.4278,0 -0.8829,0.048 -1.3653,0.145 -0.4824,0.097 -0.9816,0.24 -1.4984,0.43 l 0,1.259 c 0.4965,-0.278 0.9828,-0.488 1.459,-0.629 0.4761,-0.142 0.9445,-0.212 1.4047,-0.212 0.698,0 1.2371,0.137 1.6164,0.411 0.3793,0.275 0.5691,0.666 0.5691,1.175 0,0.444 -0.1363,0.791 -0.4086,1.041 -0.2726,0.25 -0.7195,0.438 -1.341,0.563 l -0.7449,0.146 c -0.9121,0.181 -1.5719,0.466 -1.9797,0.853 -0.4074,0.388 -0.6113,0.927 -0.6113,1.617 0,0.799 0.2816,1.428 0.8445,1.889 0.5629,0.46 1.3391,0.69 2.3277,0.69 0.4239,0 0.8559,-0.039 1.2957,-0.115 0.4399,-0.077 0.8899,-0.192 1.35,-0.345 l 0,0"
         style="fill:#000000;fill-opacity:1;fill-rule:nonzero;stroke:none"
         id="path4575" /><path
         d="m 89.4105,229.935 0,-0.545 -5.1218,0 c 0.0484,-0.767 0.2797,-1.351 0.6933,-1.752 0.4137,-0.402 0.9899,-0.603 1.7285,-0.603 0.4278,0 0.8426,0.053 1.2442,0.158 0.4015,0.105 0.8,0.262 1.1957,0.472 l 0,-1.054 c -0.3996,-0.169 -0.8094,-0.298 -1.2293,-0.387 -0.4195,-0.089 -0.8453,-0.133 -1.2773,-0.133 -1.0817,0 -1.9383,0.314 -2.57,0.944 -0.6316,0.63 -0.9476,1.481 -0.9476,2.555 0,1.11 0.3,1.991 0.8992,2.643 0.5992,0.652 1.4074,0.978 2.4246,0.978 0.9121,0 1.6336,-0.294 2.1645,-0.881 0.5308,-0.587 0.796,-1.386 0.796,-2.395 l 0,0 z m -1.114,0.327 c -0.0078,0.609 -0.1785,1.096 -0.5113,1.459 -0.3332,0.363 -0.7743,0.545 -1.3231,0.545 -0.6215,0 -1.1187,-0.175 -1.4922,-0.527 -0.3734,-0.351 -0.5883,-0.845 -0.6449,-1.483 l 3.9715,0.006"
         style="fill:#000000;fill-opacity:1;fill-rule:nonzero;stroke:none"
         id="path4577" /><path
         d="m 95.168,232.006 c -0.125,0.073 -0.2614,0.126 -0.4086,0.16 -0.1473,0.034 -0.3098,0.052 -0.4871,0.052 -0.6297,0 -1.1133,-0.205 -1.45,-0.615 -0.3371,-0.41 -0.5059,-0.998 -0.5059,-1.765 l 0,-3.572 -1.1199,0 0,6.781 1.1199,0 0,-1.053 c 0.2344,0.411 0.5391,0.717 0.9145,0.917 0.3753,0.2 0.8312,0.3 1.3679,0.3 0.077,0 0.1617,-0.006 0.2543,-0.016 0.093,-0.01 0.1961,-0.025 0.309,-0.045 l 0.0059,-1.144"
         style="fill:#000000;fill-opacity:1;fill-rule:nonzero;stroke:none"
         id="path4579" /><path
         d="m 95.5496,233.047 1.1805,0 2.1191,-5.691 2.1188,5.691 1.18,0 -2.5421,-6.781 -1.5137,0 -2.5426,6.781"
         style="fill:#000000;fill-opacity:1;fill-rule:nonzero;stroke:none"
         id="path4581" /><path
         d="m 109.486,229.935 0,-0.545 -5.122,0 c 0.049,-0.767 0.28,-1.351 0.694,-1.752 0.413,-0.402 0.99,-0.603 1.728,-0.603 0.428,0 0.843,0.053 1.244,0.158 0.402,0.105 0.8,0.262 1.196,0.472 l 0,-1.054 c -0.399,-0.169 -0.809,-0.298 -1.229,-0.387 -0.42,-0.089 -0.845,-0.133 -1.277,-0.133 -1.082,0 -1.939,0.314 -2.57,0.944 -0.632,0.63 -0.948,1.481 -0.948,2.555 0,1.11 0.3,1.991 0.899,2.643 0.599,0.652 1.408,0.978 2.425,0.978 0.912,0 1.633,-0.294 2.164,-0.881 0.531,-0.587 0.796,-1.386 0.796,-2.395 l 0,0 z m -1.114,0.327 c -0.008,0.609 -0.178,1.096 -0.511,1.459 -0.333,0.363 -0.774,0.545 -1.323,0.545 -0.622,0 -1.119,-0.175 -1.492,-0.527 -0.374,-0.351 -0.589,-0.845 -0.645,-1.483 l 3.971,0.006"
         style="fill:#000000;fill-opacity:1;fill-rule:nonzero;stroke:none"
         id="path4583" /><path
         d="m 115.244,232.006 c -0.125,0.073 -0.262,0.126 -0.409,0.16 -0.147,0.034 -0.31,0.052 -0.487,0.052 -0.63,0 -1.113,-0.205 -1.45,-0.615 -0.337,-0.41 -0.506,-0.998 -0.506,-1.765 l 0,-3.572 -1.12,0 0,6.781 1.12,0 0,-1.053 c 0.235,0.411 0.539,0.717 0.915,0.917 0.375,0.2 0.831,0.3 1.368,0.3 0.077,0 0.161,-0.006 0.254,-0.016 0.093,-0.01 0.196,-0.025 0.309,-0.045 l 0.006,-1.144"
         style="fill:#000000;fill-opacity:1;fill-rule:nonzero;stroke:none"
         id="path4585" /><path
         d="m 36.7969,234.451 0,-1.29 c -0.4117,0.384 -0.8508,0.67 -1.3168,0.86 -0.4664,0.19 -0.9617,0.284 -1.4863,0.284 -1.0333,0 -1.8247,-0.315 -2.3735,-0.947 -0.5488,-0.631 -0.8234,-1.545 -0.8234,-2.739 0,-1.191 0.2746,-2.102 0.8234,-2.734 0.5488,-0.631 1.3402,-0.947 2.3735,-0.947 0.5246,0 1.0199,0.094 1.4863,0.284 0.466,0.19 0.9051,0.476 1.3168,0.86 l 0,-1.278 c -0.4281,-0.29 -0.8809,-0.508 -1.3594,-0.654 -0.4781,-0.145 -0.9836,-0.217 -1.5164,-0.217 -1.3684,0 -2.4461,0.418 -3.2332,1.256 -0.7867,0.837 -1.1805,1.981 -1.1805,3.43 0,1.452 0.3938,2.598 1.1805,3.435 0.7871,0.838 1.8648,1.257 3.2332,1.257 0.5406,0 1.0504,-0.072 1.5285,-0.215 0.4785,-0.144 0.9274,-0.358 1.3473,-0.645 l 0,0"
         style="fill:#000000;fill-opacity:1;fill-rule:nonzero;stroke:none"
         id="path4587" /><path
         d="m 38.6492,226.108 1.11406,0 0,9.42031 -1.11406,0 0,-9.42031 z"
         style="fill:#000000;fill-opacity:1;fill-rule:nonzero;stroke:none"
         id="path4589" /><path
         d="m 42.0883,232.889 1.1137,0 0,-6.781 -1.1137,0 0,6.781 z m 0,2.64 1.1137,0 0,-1.411 -1.1137,0 0,1.411"
         style="fill:#000000;fill-opacity:1;fill-rule:nonzero;stroke:none"
         id="path4591" /><path
         d="m 51.327,229.777 0,-0.545 -5.1219,0 c 0.0484,-0.767 0.2793,-1.351 0.6929,-1.753 0.4137,-0.401 0.9899,-0.602 1.7286,-0.602 0.4277,0 0.8425,0.053 1.2441,0.157 0.4016,0.105 0.8004,0.263 1.1957,0.473 l 0,-1.054 c -0.3996,-0.169 -0.809,-0.298 -1.2289,-0.387 -0.4199,-0.089 -0.8457,-0.133 -1.2773,-0.133 -1.0817,0 -1.9383,0.314 -2.57,0.944 -0.632,0.63 -0.9476,1.481 -0.9476,2.555 0,1.11 0.2996,1.991 0.8992,2.643 0.5992,0.652 1.4074,0.977 2.4246,0.977 0.9121,0 1.6336,-0.293 2.1645,-0.881 0.5304,-0.587 0.7961,-1.385 0.7961,-2.394 l 0,0 z m -1.1141,0.327 c -0.0082,0.609 -0.1785,1.096 -0.5117,1.459 -0.3328,0.363 -0.7739,0.545 -1.3227,0.545 -0.6215,0 -1.1191,-0.176 -1.4926,-0.527 -0.373,-0.351 -0.5882,-0.845 -0.6445,-1.483 l 3.9715,0.006"
         style="fill:#000000;fill-opacity:1;fill-rule:nonzero;stroke:none"
         id="path4593" /><path
         d="m 58.7918,230.201 0,-4.093 -1.1141,0 0,4.056 c 0,0.642 -0.1254,1.123 -0.3754,1.441 -0.2503,0.319 -0.6257,0.479 -1.1261,0.479 -0.6012,0 -1.0754,-0.192 -1.4227,-0.575 -0.3473,-0.384 -0.5207,-0.907 -0.5207,-1.568 l 0,-3.833 -1.1199,0 0,6.781 1.1199,0 0,-1.053 c 0.2664,0.407 0.5801,0.712 0.9414,0.914 0.3613,0.202 0.7781,0.302 1.2504,0.302 0.7789,0 1.368,-0.241 1.7676,-0.723 0.3996,-0.483 0.5996,-1.192 0.5996,-2.128 l 0,0"
         style="fill:#000000;fill-opacity:1;fill-rule:nonzero;stroke:none"
         id="path4595" /><path
         d="m 62.1273,234.814 0,-1.925 2.2946,0 0,-0.866 -2.2946,0 0,-3.681 c 0,-0.553 0.0758,-0.908 0.2274,-1.065 0.1512,-0.158 0.459,-0.236 0.923,-0.236 l 1.1442,0 0,-0.933 -1.1442,0 c -0.8597,0 -1.4531,0.161 -1.7797,0.481 -0.3269,0.322 -0.4906,0.906 -0.4906,1.753 l 0,3.681 -0.8172,0 0,0.866 0.8172,0 0,1.925 1.1199,0"
         style="fill:#000000;fill-opacity:1;fill-rule:nonzero;stroke:none"
         id="path4597" /><path
         d="m 108.51,192.519 125.853,0 0,11.0883 -125.853,0 0,-11.0883 z"
         style="fill:#ffffff;fill-opacity:1;fill-rule:nonzero;stroke:none"
         id="path4599" /><path
         d="m 108.51,192.519 125.853,0 0,11.0883 -125.853,0 0,-11.0883 z"
         style="fill:none;stroke:#000000;stroke-width:0.499098;stroke-linecap:butt;stroke-linejoin:miter;stroke-miterlimit:10;stroke-opacity:1;stroke-dasharray:none"
         id="path4601" /><path
         d="m 109.602,201.137 5.098,0 0,-0.687 -2.139,0 0,-5.339 -0.82,0 0,5.339 -2.139,0 0,0.687"
         style="fill:#000000;fill-opacity:1;fill-rule:nonzero;stroke:none"
         id="path4603" /><path
         d="m 119.325,197.557 0,-0.364 -3.415,0 c 0.033,-0.511 0.187,-0.9 0.463,-1.168 0.275,-0.268 0.659,-0.402 1.152,-0.402 0.285,0 0.561,0.035 0.829,0.105 0.268,0.07 0.534,0.175 0.797,0.315 l 0,-0.702 c -0.266,-0.113 -0.539,-0.199 -0.819,-0.259 -0.28,-0.059 -0.564,-0.088 -0.852,-0.088 -0.721,0 -1.292,0.21 -1.713,0.629 -0.421,0.42 -0.631,0.988 -0.631,1.704 0,0.739 0.199,1.327 0.599,1.761 0.399,0.435 0.938,0.652 1.616,0.652 0.608,0 1.089,-0.195 1.443,-0.587 0.354,-0.392 0.531,-0.924 0.531,-1.596 l 0,0 z m -0.743,0.218 c -0.005,0.406 -0.119,0.73 -0.341,0.972 -0.222,0.242 -0.516,0.364 -0.882,0.364 -0.414,0 -0.746,-0.118 -0.995,-0.352 -0.248,-0.234 -0.392,-0.563 -0.43,-0.988 l 2.648,0.004"
         style="fill:#000000;fill-opacity:1;fill-rule:nonzero;stroke:none"
         id="path4605" /><path
         d="m 124.302,199.631 -1.635,-2.199 1.719,-2.321 -0.875,0 -1.316,1.776 -1.316,-1.776 -0.876,0 1.756,2.365 -1.607,2.155 0.876,0 1.199,-1.61 1.199,1.61 0.876,0"
         style="fill:#000000;fill-opacity:1;fill-rule:nonzero;stroke:none"
         id="path4607" /><path
         d="m 126.17,200.915 0,-1.284 1.53,0 0,-0.577 -1.53,0 0,-2.454 c 0,-0.369 0.051,-0.605 0.151,-0.71 0.101,-0.105 0.307,-0.158 0.616,-0.158 l 0.763,0 0,-0.621 -0.763,0 c -0.573,0 -0.969,0.107 -1.187,0.321 -0.218,0.213 -0.327,0.603 -0.327,1.168 l 0,2.454 -0.544,0 0,0.577 0.544,0 0,1.284 0.747,0"
         style="fill:#000000;fill-opacity:1;fill-rule:nonzero;stroke:none"
         id="path4609" /><path
         d="m 128.604,196.895 0,2.736 0.742,0 0,-2.708 c 0,-0.428 0.084,-0.749 0.251,-0.963 0.167,-0.214 0.417,-0.321 0.751,-0.321 0.4,0 0.717,0.128 0.95,0.384 0.233,0.256 0.349,0.604 0.349,1.045 l 0,2.563 0.743,0 0,-4.52 -0.743,0 0,0.694 c -0.18,-0.275 -0.389,-0.478 -0.627,-0.612 -0.238,-0.133 -0.515,-0.199 -0.83,-0.199 -0.519,0 -0.913,0.161 -1.183,0.484 -0.268,0.323 -0.403,0.795 -0.403,1.417 l 0,0"
         style="fill:#000000;fill-opacity:1;fill-rule:nonzero;stroke:none"
         id="path4611" /><path
         d="m 136.547,198.937 c -0.083,0.049 -0.174,0.084 -0.272,0.107 -0.098,0.023 -0.207,0.034 -0.325,0.034 -0.42,0 -0.742,-0.136 -0.967,-0.409 -0.225,-0.274 -0.337,-0.666 -0.337,-1.177 l 0,-2.381 -0.747,0 0,4.52 0.747,0 0,-0.702 c 0.156,0.275 0.359,0.478 0.609,0.611 0.251,0.133 0.555,0.2 0.913,0.2 0.051,0 0.107,-0.003 0.169,-0.01 0.062,-0.007 0.131,-0.017 0.206,-0.03 l 0.004,-0.763"
         style="fill:#000000;fill-opacity:1;fill-rule:nonzero;stroke:none"
         id="path4613" /><path
         d="m 141.201,197.557 0,-0.364 -3.415,0 c 0.032,-0.511 0.187,-0.9 0.462,-1.168 0.276,-0.268 0.66,-0.402 1.153,-0.402 0.285,0 0.561,0.035 0.829,0.105 0.268,0.07 0.534,0.175 0.797,0.315 l 0,-0.702 c -0.266,-0.113 -0.539,-0.199 -0.819,-0.259 -0.28,-0.059 -0.564,-0.088 -0.852,-0.088 -0.721,0 -1.292,0.21 -1.713,0.629 -0.421,0.42 -0.632,0.988 -0.632,1.704 0,0.739 0.2,1.327 0.6,1.761 0.399,0.435 0.938,0.652 1.616,0.652 0.608,0 1.089,-0.195 1.443,-0.587 0.354,-0.392 0.531,-0.924 0.531,-1.596 l 0,0 z m -0.743,0.218 c -0.005,0.406 -0.119,0.73 -0.341,0.972 -0.222,0.242 -0.516,0.364 -0.882,0.364 -0.414,0 -0.746,-0.118 -0.995,-0.352 -0.249,-0.234 -0.392,-0.563 -0.429,-0.988 l 2.647,0.004"
         style="fill:#000000;fill-opacity:1;fill-rule:nonzero;stroke:none"
         id="path4615" /><path
         d="m 145.302,199.498 0,-0.702 c -0.211,0.108 -0.429,0.188 -0.654,0.242 -0.227,0.054 -0.46,0.081 -0.703,0.081 -0.368,0 -0.645,-0.057 -0.829,-0.17 -0.184,-0.113 -0.277,-0.283 -0.277,-0.508 0,-0.173 0.066,-0.308 0.198,-0.406 0.132,-0.098 0.397,-0.192 0.795,-0.281 l 0.255,-0.056 c 0.527,-0.113 0.902,-0.273 1.124,-0.478 0.221,-0.206 0.333,-0.493 0.333,-0.862 0,-0.42 -0.167,-0.752 -0.499,-0.997 -0.332,-0.245 -0.789,-0.367 -1.37,-0.367 -0.242,0 -0.495,0.023 -0.757,0.07 -0.262,0.047 -0.539,0.118 -0.829,0.212 l 0,0.767 c 0.274,-0.143 0.545,-0.25 0.811,-0.321 0.266,-0.071 0.53,-0.107 0.791,-0.107 0.35,0 0.619,0.06 0.807,0.18 0.189,0.119 0.283,0.289 0.283,0.507 0,0.201 -0.068,0.356 -0.204,0.464 -0.136,0.107 -0.434,0.211 -0.894,0.31 l -0.258,0.061 c -0.461,0.097 -0.793,0.245 -0.997,0.446 -0.205,0.2 -0.307,0.476 -0.307,0.825 0,0.425 0.15,0.754 0.452,0.985 0.301,0.232 0.729,0.347 1.284,0.347 0.274,0 0.532,-0.02 0.774,-0.06 0.242,-0.041 0.466,-0.101 0.671,-0.182 l 0,0"
         style="fill:#000000;fill-opacity:1;fill-rule:nonzero;stroke:none"
         id="path4617" /><path
         d="m 152.385,200.293 0,-2.248 2.248,0 0,-0.686 -2.248,0 0,-2.248 -0.678,0 0,2.248 -2.248,0 0,0.686 2.248,0 0,2.248 0.678,0"
         style="fill:#000000;fill-opacity:1;fill-rule:nonzero;stroke:none"
         id="path4619" /><path
         d="m 158.859,201.137 0.819,0 0,-3.661 c 0,-0.646 0.117,-1.111 0.351,-1.395 0.234,-0.283 0.614,-0.426 1.139,-0.426 0.521,0 0.9,0.143 1.134,0.426 0.234,0.284 0.351,0.749 0.351,1.395 l 0,3.661 0.819,0 0,-3.762 c 0,-0.786 -0.194,-1.379 -0.583,-1.78 -0.389,-0.401 -0.963,-0.601 -1.721,-0.601 -0.762,0 -1.337,0.2 -1.726,0.601 -0.389,0.401 -0.583,0.994 -0.583,1.78 l 0,3.762"
         style="fill:#000000;fill-opacity:1;fill-rule:nonzero;stroke:none"
         id="path4621" /><path
         d="m 168.731,197.839 0,-2.728 -0.742,0 0,2.704 c 0,0.428 -0.084,0.748 -0.251,0.96 -0.167,0.213 -0.417,0.32 -0.75,0.32 -0.401,0 -0.718,-0.129 -0.949,-0.384 -0.231,-0.256 -0.347,-0.604 -0.347,-1.045 l 0,-2.555 -0.747,0 0,4.52 0.747,0 0,-0.702 c 0.178,0.272 0.387,0.475 0.628,0.609 0.241,0.135 0.518,0.202 0.833,0.202 0.519,0 0.912,-0.161 1.179,-0.482 0.266,-0.322 0.399,-0.795 0.399,-1.419 l 0,0"
         style="fill:#000000;fill-opacity:1;fill-rule:nonzero;stroke:none"
         id="path4623" /><path
         d="m 170.22,199.631 0.743,0 0,-4.52 -0.743,0 0,4.52 z m 0,1.76 0.743,0 0,-0.941 -0.743,0 0,0.941"
         style="fill:#000000;fill-opacity:1;fill-rule:nonzero;stroke:none"
         id="path4625" /><path
         d="m 174.802,201.391 0,-0.618 -0.711,0 c -0.266,0 -0.451,-0.053 -0.555,-0.161 -0.104,-0.108 -0.155,-0.301 -0.155,-0.581 l 0,-0.4 1.223,0 0,-0.577 -1.223,0 0,-3.943 -0.747,0 0,3.943 -0.71,0 0,0.577 0.71,0 0,0.315 c 0,0.503 0.117,0.87 0.351,1.1 0.235,0.23 0.606,0.345 1.114,0.345 l 0.703,0"
         style="fill:#000000;fill-opacity:1;fill-rule:nonzero;stroke:none"
         id="path4627" /><path
         d="m 177.171,199.111 c -0.398,0 -0.713,-0.156 -0.945,-0.466 -0.231,-0.311 -0.347,-0.737 -0.347,-1.278 0,-0.541 0.115,-0.967 0.345,-1.278 0.23,-0.31 0.546,-0.466 0.947,-0.466 0.395,0 0.709,0.156 0.94,0.468 0.232,0.313 0.347,0.738 0.347,1.276 0,0.535 -0.115,0.96 -0.347,1.273 -0.231,0.314 -0.545,0.471 -0.94,0.471 l 0,0 z m 0,0.629 c 0.645,0 1.153,-0.21 1.521,-0.629 0.369,-0.42 0.553,-1.002 0.553,-1.744 0,-0.74 -0.184,-1.321 -0.553,-1.742 -0.368,-0.421 -0.876,-0.631 -1.521,-0.631 -0.649,0 -1.157,0.21 -1.524,0.631 -0.367,0.421 -0.551,1.002 -0.551,1.742 0,0.742 0.184,1.324 0.551,1.744 0.367,0.419 0.875,0.629 1.524,0.629 l 0,0"
         style="fill:#000000;fill-opacity:1;fill-rule:nonzero;stroke:none"
         id="path4629" /><path
         d="m 183.092,198.937 c -0.084,0.049 -0.174,0.084 -0.273,0.107 -0.098,0.023 -0.206,0.034 -0.324,0.034 -0.42,0 -0.743,-0.136 -0.967,-0.409 -0.225,-0.274 -0.337,-0.666 -0.337,-1.177 l 0,-2.381 -0.747,0 0,4.52 0.747,0 0,-0.702 c 0.156,0.275 0.359,0.478 0.609,0.611 0.25,0.133 0.554,0.2 0.912,0.2 0.051,0 0.108,-0.003 0.17,-0.01 0.062,-0.007 0.13,-0.017 0.206,-0.03 l 0.004,-0.763"
         style="fill:#000000;fill-opacity:1;fill-rule:nonzero;stroke:none"
         id="path4631" /><path
         d="m 187.398,198.763 c 0.186,0.334 0.408,0.58 0.666,0.739 0.259,0.159 0.563,0.238 0.913,0.238 0.47,0 0.834,-0.165 1.089,-0.494 0.256,-0.33 0.384,-0.799 0.384,-1.407 l 0,-2.728 -0.747,0 0,2.704 c 0,0.433 -0.077,0.755 -0.23,0.965 -0.153,0.209 -0.387,0.315 -0.702,0.315 -0.385,0 -0.689,-0.129 -0.913,-0.384 -0.223,-0.256 -0.335,-0.604 -0.335,-1.045 l 0,-2.555 -0.746,0 0,2.704 c 0,0.436 -0.077,0.758 -0.231,0.967 -0.153,0.208 -0.389,0.313 -0.71,0.313 -0.379,0 -0.681,-0.129 -0.904,-0.386 -0.223,-0.257 -0.335,-0.605 -0.335,-1.043 l 0,-2.555 -0.747,0 0,4.52 0.747,0 0,-0.702 c 0.17,0.277 0.373,0.482 0.61,0.614 0.236,0.131 0.518,0.197 0.843,0.197 0.329,0 0.608,-0.083 0.838,-0.25 0.23,-0.167 0.4,-0.409 0.51,-0.727 l 0,0"
         style="fill:#000000;fill-opacity:1;fill-rule:nonzero;stroke:none"
         id="path4633" /><path
         d="m 194.034,199.631 0.787,0 1.412,-3.794 1.413,3.794 0.787,0 -1.695,-4.52 -1.009,0 -1.695,4.52"
         style="fill:#000000;fill-opacity:1;fill-rule:nonzero;stroke:none"
         id="path4635" /><path
         d="m 201.512,197.383 c -0.6,0 -1.015,-0.069 -1.246,-0.206 -0.232,-0.137 -0.348,-0.371 -0.348,-0.702 0,-0.264 0.087,-0.473 0.261,-0.628 0.173,-0.154 0.409,-0.232 0.708,-0.232 0.412,0 0.742,0.146 0.991,0.438 0.249,0.292 0.373,0.68 0.373,1.165 l 0,0.165 -0.739,0 z m 1.482,0.307 0,-2.579 -0.743,0 0,0.686 c -0.169,-0.275 -0.381,-0.477 -0.633,-0.608 -0.254,-0.13 -0.563,-0.195 -0.929,-0.195 -0.462,0 -0.83,0.129 -1.103,0.389 -0.274,0.26 -0.41,0.608 -0.41,1.044 0,0.508 0.17,0.891 0.51,1.15 0.341,0.258 0.848,0.387 1.524,0.387 l 1.041,0 0,0.073 c 0,0.342 -0.112,0.606 -0.337,0.793 -0.225,0.187 -0.54,0.281 -0.946,0.281 -0.259,0 -0.51,-0.031 -0.755,-0.093 -0.245,-0.062 -0.48,-0.155 -0.706,-0.279 l 0,0.686 c 0.272,0.105 0.535,0.184 0.791,0.236 0.256,0.053 0.504,0.079 0.747,0.079 0.653,0 1.142,-0.169 1.464,-0.508 0.323,-0.339 0.485,-0.853 0.485,-1.542 l 0,0"
         style="fill:#000000;fill-opacity:1;fill-rule:nonzero;stroke:none"
         id="path4637" /><path
         d="m 207.147,198.937 c -0.083,0.049 -0.174,0.084 -0.272,0.107 -0.098,0.023 -0.207,0.034 -0.325,0.034 -0.42,0 -0.742,-0.136 -0.967,-0.409 -0.225,-0.274 -0.337,-0.666 -0.337,-1.177 l 0,-2.381 -0.747,0 0,4.52 0.747,0 0,-0.702 c 0.156,0.275 0.359,0.478 0.609,0.611 0.251,0.133 0.555,0.2 0.913,0.2 0.051,0 0.107,-0.003 0.169,-0.01 0.062,-0.007 0.131,-0.017 0.206,-0.03 l 0.004,-0.763"
         style="fill:#000000;fill-opacity:1;fill-rule:nonzero;stroke:none"
         id="path4639" /><path
         d="m 207.934,199.631 0.743,0 0,-4.52 -0.743,0 0,4.52 z m 0,1.76 0.743,0 0,-0.941 -0.743,0 0,0.941"
         style="fill:#000000;fill-opacity:1;fill-rule:nonzero;stroke:none"
         id="path4641" /><path
         d="m 212.281,197.383 c -0.6,0 -1.016,-0.069 -1.247,-0.206 -0.232,-0.137 -0.347,-0.371 -0.347,-0.702 0,-0.264 0.086,-0.473 0.26,-0.628 0.174,-0.154 0.41,-0.232 0.708,-0.232 0.412,0 0.742,0.146 0.991,0.438 0.249,0.292 0.374,0.68 0.374,1.165 l 0,0.165 -0.739,0 z m 1.481,0.307 0,-2.579 -0.742,0 0,0.686 c -0.17,-0.275 -0.381,-0.477 -0.634,-0.608 -0.253,-0.13 -0.563,-0.195 -0.928,-0.195 -0.463,0 -0.831,0.129 -1.104,0.389 -0.274,0.26 -0.41,0.608 -0.41,1.044 0,0.508 0.17,0.891 0.511,1.15 0.34,0.258 0.848,0.387 1.523,0.387 l 1.042,0 0,0.073 c 0,0.342 -0.113,0.606 -0.338,0.793 -0.224,0.187 -0.539,0.281 -0.946,0.281 -0.258,0 -0.51,-0.031 -0.755,-0.093 -0.245,-0.062 -0.48,-0.155 -0.706,-0.279 l 0,0.686 c 0.272,0.105 0.536,0.184 0.791,0.236 0.256,0.053 0.505,0.079 0.747,0.079 0.654,0 1.142,-0.169 1.465,-0.508 0.323,-0.339 0.484,-0.853 0.484,-1.542 l 0,0"
         style="fill:#000000;fill-opacity:1;fill-rule:nonzero;stroke:none"
         id="path4643" /><path
         d="m 218.541,197.367 c 0,0.546 -0.112,0.975 -0.337,1.285 -0.225,0.311 -0.533,0.467 -0.926,0.467 -0.393,0 -0.702,-0.156 -0.926,-0.467 -0.225,-0.31 -0.338,-0.739 -0.338,-1.285 0,-0.546 0.113,-0.975 0.338,-1.286 0.224,-0.31 0.533,-0.466 0.926,-0.466 0.393,0 0.701,0.156 0.926,0.466 0.225,0.311 0.337,0.74 0.337,1.286 l 0,0 z m -2.527,1.578 c 0.156,0.269 0.354,0.469 0.592,0.6 0.238,0.13 0.523,0.195 0.853,0.195 0.549,0 0.995,-0.218 1.338,-0.654 0.343,-0.436 0.515,-1.009 0.515,-1.719 0,-0.71 -0.172,-1.283 -0.515,-1.719 -0.343,-0.436 -0.789,-0.654 -1.338,-0.654 -0.33,0 -0.615,0.065 -0.853,0.195 -0.238,0.131 -0.436,0.331 -0.592,0.6 l 0,-0.678 -0.746,0 0,6.28 0.746,0 0,-2.446"
         style="fill:#000000;fill-opacity:1;fill-rule:nonzero;stroke:none"
         id="path4645" /><path
         d="m 220.543,195.111 0.74258,0 0,6.28047 -0.74258,0 0,-6.28047 z"
         style="fill:#000000;fill-opacity:1;fill-rule:nonzero;stroke:none"
         id="path4647" /><path
         d="m 226.702,197.557 0,-0.364 -3.414,0 c 0.032,-0.511 0.186,-0.9 0.462,-1.168 0.275,-0.268 0.659,-0.402 1.152,-0.402 0.285,0 0.562,0.035 0.829,0.105 0.268,0.07 0.534,0.175 0.798,0.315 l 0,-0.702 c -0.267,-0.113 -0.54,-0.199 -0.82,-0.259 -0.28,-0.059 -0.564,-0.088 -0.852,-0.088 -0.721,0 -1.292,0.21 -1.713,0.629 -0.421,0.42 -0.632,0.988 -0.632,1.704 0,0.739 0.2,1.327 0.6,1.761 0.4,0.435 0.938,0.652 1.617,0.652 0.607,0 1.089,-0.195 1.442,-0.587 0.354,-0.392 0.531,-0.924 0.531,-1.596 l 0,0 z m -0.743,0.218 c -0.005,0.406 -0.119,0.73 -0.341,0.972 -0.222,0.242 -0.516,0.364 -0.882,0.364 -0.414,0 -0.745,-0.118 -0.995,-0.352 -0.248,-0.234 -0.391,-0.563 -0.429,-0.988 l 2.647,0.004"
         style="fill:#000000;fill-opacity:1;fill-rule:nonzero;stroke:none"
         id="path4649" /><path
         d="m 230.803,199.498 0,-0.702 c -0.21,0.108 -0.428,0.188 -0.654,0.242 -0.226,0.054 -0.46,0.081 -0.703,0.081 -0.368,0 -0.644,-0.057 -0.829,-0.17 -0.184,-0.113 -0.276,-0.283 -0.276,-0.508 0,-0.173 0.066,-0.308 0.198,-0.406 0.131,-0.098 0.397,-0.192 0.795,-0.281 l 0.254,-0.056 c 0.527,-0.113 0.902,-0.273 1.124,-0.478 0.222,-0.206 0.333,-0.493 0.333,-0.862 0,-0.42 -0.166,-0.752 -0.499,-0.997 -0.332,-0.245 -0.789,-0.367 -1.37,-0.367 -0.242,0 -0.494,0.023 -0.756,0.07 -0.263,0.047 -0.54,0.118 -0.83,0.212 l 0,0.767 c 0.274,-0.143 0.545,-0.25 0.811,-0.321 0.267,-0.071 0.53,-0.107 0.791,-0.107 0.35,0 0.619,0.06 0.808,0.18 0.188,0.119 0.282,0.289 0.282,0.507 0,0.201 -0.068,0.356 -0.204,0.464 -0.135,0.107 -0.433,0.211 -0.894,0.31 l -0.258,0.061 c -0.46,0.097 -0.792,0.245 -0.997,0.446 -0.204,0.2 -0.307,0.476 -0.307,0.825 0,0.425 0.151,0.754 0.452,0.985 0.302,0.232 0.73,0.347 1.284,0.347 0.274,0 0.533,-0.02 0.775,-0.06 0.242,-0.041 0.465,-0.101 0.67,-0.182 l 0,0"
         style="fill:#000000;fill-opacity:1;fill-rule:nonzero;stroke:none"
         id="path4651" /></g></g></svg>