<?xml version="1.0" encoding="UTF-8" standalone="no"?>
<!-- Created with Inkscape (http://www.inkscape.org/) -->

<svg
   xmlns:dc="http://purl.org/dc/elements/1.1/"
   xmlns:cc="http://creativecommons.org/ns#"
   xmlns:rdf="http://www.w3.org/1999/02/22-rdf-syntax-ns#"
   xmlns:svg="http://www.w3.org/2000/svg"
   xmlns="http://www.w3.org/2000/svg"
   xmlns:xlink="http://www.w3.org/1999/xlink"
   xmlns:sodipodi="http://sodipodi.sourceforge.net/DTD/sodipodi-0.dtd"
   xmlns:inkscape="http://www.inkscape.org/namespaces/inkscape"
   width="475.22232"
   height="311.64575"
   id="svg2"
   inkscape:label="Pozadí"
   version="1.1"
   inkscape:version="0.48.3.1 r9886"
   sodipodi:docname="Nový dokument 1">
  <sodipodi:namedview
     id="base"
     pagecolor="#ffffff"
     bordercolor="#666666"
     borderopacity="1.0"
     inkscape:pageopacity="0.0"
     inkscape:pageshadow="2"
     inkscape:zoom="0.98994949"
     inkscape:cx="240.11319"
     inkscape:cy="291.93655"
     inkscape:document-units="px"
     inkscape:current-layer="layer1"
     showgrid="false"
     inkscape:window-width="1919"
     inkscape:window-height="1052"
     inkscape:window-x="1"
     inkscape:window-y="0"
     inkscape:window-maximized="1"
     fit-margin-top="0"
     fit-margin-left="0"
     fit-margin-right="0"
     fit-margin-bottom="0" />
  <defs
     id="defs3">
    <marker
       inkscape:stockid="Arrow1Lend"
       orient="auto"
       refY="0"
       refX="0"
       id="Arrow1Lend"
       style="overflow:visible">
      <path
         id="path4756"
         d="M 0,0 5,-5 -12.5,0 5,5 0,0 z"
         style="fill-rule:evenodd;stroke:#000000;stroke-width:1pt"
         transform="matrix(-0.8,0,0,-0.8,-10,0)"
         inkscape:connector-curvature="0" />
    </marker>
    <marker
       inkscape:stockid="Arrow1Mend"
       orient="auto"
       refY="0"
       refX="0"
       id="Arrow1Mend"
       style="overflow:visible">
      <path
         id="path4762"
         d="M 0,0 5,-5 -12.5,0 5,5 0,0 z"
         style="fill-rule:evenodd;stroke:#000000;stroke-width:1pt"
         transform="matrix(-0.4,0,0,-0.4,-4,0)"
         inkscape:connector-curvature="0" />
    </marker>
    <defs
       id="defs3013">
      <g
         id="g3015">
        <symbol
           overflow="visible"
           id="textext-cf98073d-0"
           style="overflow:visible">
          <path
             style="stroke:none"
             d="m 4.25,-6.046875 c 0.078125,-0.28125 0.109375,-0.34375 0.234375,-0.375 0.09375,-0.015625 0.421875,-0.015625 0.625,-0.015625 1.015625,0 1.453125,0.03125 1.453125,0.8125 0,0.15625 -0.03125,0.546875 -0.078125,0.796875 0,0.046875 -0.03125,0.15625 -0.03125,0.1875 0,0.0625 0.03125,0.140625 0.125,0.140625 0.109375,0 0.125,-0.078125 0.15625,-0.234375 L 7,-6.46875 C 7.015625,-6.515625 7.015625,-6.609375 7.015625,-6.640625 7.015625,-6.75 6.921875,-6.75 6.75,-6.75 l -5.53125,0 c -0.234375,0 -0.25,0.015625 -0.328125,0.203125 l -0.59375,1.75 c 0,0.015625 -0.0625,0.15625 -0.0625,0.1875 0,0.046875 0.0625,0.109375 0.125,0.109375 0.09375,0 0.109375,-0.0625 0.171875,-0.21875 C 1.0625,-6.265625 1.328125,-6.4375 2.796875,-6.4375 l 0.390625,0 c 0.28125,0 0.28125,0.03125 0.28125,0.125 0,0.046875 -0.03125,0.171875 -0.046875,0.203125 L 2.09375,-0.78125 C 2,-0.421875 1.96875,-0.3125 0.90625,-0.3125 c -0.359375,0 -0.421875,0 -0.421875,0.1875 C 0.484375,0 0.59375,0 0.65625,0 c 0.265625,0 0.546875,-0.015625 0.8125,-0.015625 0.28125,0 0.578125,-0.015625 0.859375,-0.015625 0.28125,0 0.546875,0.015625 0.828125,0.015625 C 3.4375,-0.015625 3.734375,0 4.015625,0 c 0.09375,0 0.21875,0 0.21875,-0.203125 0,-0.109375 -0.078125,-0.109375 -0.34375,-0.109375 -0.234375,0 -0.375,0 -0.625,-0.015625 -0.296875,-0.03125 -0.375,-0.0625 -0.375,-0.21875 0,-0.015625 0,-0.0625 0.046875,-0.203125 z m 0,0"
             id="path3018"
             inkscape:connector-curvature="0" />
        </symbol>
        <symbol
           overflow="visible"
           id="textext-cf98073d-1"
           style="overflow:visible">
          <path
             style="stroke:none"
             d="m 2.859375,-6.8125 c 0,0 0,-0.109375 -0.125,-0.109375 -0.234375,0 -0.953125,0.078125 -1.21875,0.109375 -0.078125,0 -0.1875,0.015625 -0.1875,0.1875 0,0.125 0.09375,0.125 0.234375,0.125 0.484375,0 0.5,0.0625 0.5,0.171875 L 2.03125,-6.125 0.59375,-0.390625 c -0.046875,0.140625 -0.046875,0.15625 -0.046875,0.21875 0,0.234375 0.203125,0.28125 0.296875,0.28125 0.15625,0 0.3125,-0.125 0.359375,-0.265625 l 0.1875,-0.75 0.21875,-0.890625 C 1.671875,-2.03125 1.734375,-2.25 1.78125,-2.46875 1.796875,-2.53125 1.890625,-2.859375 1.890625,-2.921875 1.921875,-3.015625 2.234375,-3.5625 2.578125,-3.84375 2.796875,-4 3.09375,-4.1875 3.53125,-4.1875 c 0.421875,0 0.53125,0.34375 0.53125,0.703125 0,0.53125 -0.375,1.625 -0.609375,2.234375 C 3.375,-1.03125 3.3125,-0.90625 3.3125,-0.703125 c 0,0.46875 0.359375,0.8125 0.828125,0.8125 0.9375,0 1.296875,-1.453125 1.296875,-1.53125 0,-0.109375 -0.078125,-0.109375 -0.109375,-0.109375 -0.109375,0 -0.109375,0.03125 -0.15625,0.1875 -0.140625,0.53125 -0.46875,1.234375 -1.015625,1.234375 -0.171875,0 -0.234375,-0.09375 -0.234375,-0.328125 0,-0.25 0.078125,-0.484375 0.171875,-0.703125 0.15625,-0.4375 0.609375,-1.625 0.609375,-2.203125 0,-0.640625 -0.390625,-1.0625 -1.140625,-1.0625 -0.625,0 -1.109375,0.3125 -1.484375,0.765625 z m 0,0"
             id="path3021"
             inkscape:connector-curvature="0" />
        </symbol>
        <symbol
           overflow="visible"
           id="textext-cf98073d-2"
           style="overflow:visible">
          <path
             style="stroke:none"
             d="m 0.875,-0.59375 c -0.03125,0.15625 -0.09375,0.390625 -0.09375,0.4375 0,0.171875 0.140625,0.265625 0.296875,0.265625 0.125,0 0.296875,-0.078125 0.375,-0.28125 C 1.46875,-0.203125 1.796875,-1.5625 1.84375,-1.75 c 0.078125,-0.328125 0.265625,-1.015625 0.3125,-1.296875 0.046875,-0.125 0.328125,-0.59375 0.5625,-0.8125 0.078125,-0.0625 0.375,-0.328125 0.796875,-0.328125 0.265625,0 0.40625,0.125 0.421875,0.125 -0.296875,0.046875 -0.515625,0.28125 -0.515625,0.546875 0,0.15625 0.109375,0.34375 0.375,0.34375 0.265625,0 0.546875,-0.234375 0.546875,-0.59375 0,-0.34375 -0.3125,-0.640625 -0.828125,-0.640625 C 2.875,-4.40625 2.4375,-3.921875 2.25,-3.640625 2.15625,-4.09375 1.796875,-4.40625 1.328125,-4.40625 0.875,-4.40625 0.6875,-4.015625 0.59375,-3.84375 0.421875,-3.5 0.296875,-2.90625 0.296875,-2.875 c 0,0.109375 0.09375,0.109375 0.109375,0.109375 0.109375,0 0.109375,-0.015625 0.171875,-0.234375 0.171875,-0.703125 0.375,-1.1875 0.734375,-1.1875 0.15625,0 0.296875,0.078125 0.296875,0.453125 0,0.21875 -0.03125,0.328125 -0.15625,0.84375 z m 0,0"
             id="path3024"
             inkscape:connector-curvature="0" />
        </symbol>
        <symbol
           overflow="visible"
           id="textext-cf98073d-3"
           style="overflow:visible">
          <path
             style="stroke:none"
             d="m 1.859375,-2.296875 c 0.296875,0 1.03125,-0.03125 1.53125,-0.234375 0.703125,-0.296875 0.75,-0.890625 0.75,-1.03125 0,-0.4375 -0.375,-0.84375 -1.0625,-0.84375 -1.109375,0 -2.625,0.96875 -2.625,2.71875 0,1.015625 0.59375,1.796875 1.578125,1.796875 1.421875,0 2.25,-1.0625 2.25,-1.171875 0,-0.0625 -0.046875,-0.140625 -0.109375,-0.140625 -0.0625,0 -0.078125,0.03125 -0.140625,0.109375 -0.78125,0.984375 -1.875,0.984375 -1.984375,0.984375 -0.78125,0 -0.875,-0.84375 -0.875,-1.15625 0,-0.125 0.015625,-0.421875 0.15625,-1.03125 z m -0.46875,-0.21875 C 1.78125,-4.03125 2.8125,-4.1875 3.078125,-4.1875 c 0.453125,0 0.734375,0.296875 0.734375,0.625 0,1.046875 -1.59375,1.046875 -2.015625,1.046875 z m 0,0"
             id="path3027"
             inkscape:connector-curvature="0" />
        </symbol>
        <symbol
           overflow="visible"
           id="textext-cf98073d-4"
           style="overflow:visible">
          <path
             style="stroke:none"
             d="M 3.71875,-3.765625 C 3.53125,-4.140625 3.25,-4.40625 2.796875,-4.40625 c -1.15625,0 -2.390625,1.46875 -2.390625,2.921875 0,0.9375 0.546875,1.59375 1.3125,1.59375 0.203125,0 0.703125,-0.046875 1.296875,-0.75 0.078125,0.421875 0.4375,0.75 0.90625,0.75 0.359375,0 0.578125,-0.234375 0.75,-0.546875 0.15625,-0.359375 0.296875,-0.96875 0.296875,-0.984375 0,-0.109375 -0.09375,-0.109375 -0.125,-0.109375 -0.09375,0 -0.109375,0.046875 -0.140625,0.1875 -0.171875,0.640625 -0.34375,1.234375 -0.75,1.234375 -0.28125,0 -0.296875,-0.265625 -0.296875,-0.453125 0,-0.21875 0.015625,-0.3125 0.125,-0.75 C 3.890625,-1.71875 3.90625,-1.828125 4,-2.203125 L 4.359375,-3.59375 c 0.0625,-0.28125 0.0625,-0.296875 0.0625,-0.34375 0,-0.171875 -0.109375,-0.265625 -0.28125,-0.265625 -0.25,0 -0.390625,0.21875 -0.421875,0.4375 z M 3.078125,-1.1875 C 3.015625,-1 3.015625,-0.984375 2.875,-0.8125 2.4375,-0.265625 2.03125,-0.109375 1.75,-0.109375 c -0.5,0 -0.640625,-0.546875 -0.640625,-0.9375 0,-0.5 0.3125,-1.71875 0.546875,-2.1875 0.3125,-0.578125 0.75,-0.953125 1.15625,-0.953125 0.640625,0 0.78125,0.8125 0.78125,0.875 0,0.0625 -0.015625,0.125 -0.03125,0.171875 z m 0,0"
             id="path3030"
             inkscape:connector-curvature="0" />
        </symbol>
        <symbol
           overflow="visible"
           id="textext-cf98073d-5"
           style="overflow:visible">
          <path
             style="stroke:none"
             d="m 5.140625,-6.8125 c 0,0 0,-0.109375 -0.125,-0.109375 -0.15625,0 -1.09375,0.09375 -1.265625,0.109375 -0.078125,0.015625 -0.140625,0.0625 -0.140625,0.1875 0,0.125 0.09375,0.125 0.234375,0.125 0.484375,0 0.5,0.0625 0.5,0.171875 L 4.3125,-6.125 3.71875,-3.765625 C 3.53125,-4.140625 3.25,-4.40625 2.796875,-4.40625 c -1.15625,0 -2.390625,1.46875 -2.390625,2.921875 0,0.9375 0.546875,1.59375 1.3125,1.59375 0.203125,0 0.703125,-0.046875 1.296875,-0.75 0.078125,0.421875 0.4375,0.75 0.90625,0.75 0.359375,0 0.578125,-0.234375 0.75,-0.546875 0.15625,-0.359375 0.296875,-0.96875 0.296875,-0.984375 0,-0.109375 -0.09375,-0.109375 -0.125,-0.109375 -0.09375,0 -0.109375,0.046875 -0.140625,0.1875 -0.171875,0.640625 -0.34375,1.234375 -0.75,1.234375 -0.28125,0 -0.296875,-0.265625 -0.296875,-0.453125 0,-0.25 0.015625,-0.3125 0.046875,-0.484375 z m -2.0625,5.625 C 3.015625,-1 3.015625,-0.984375 2.875,-0.8125 2.4375,-0.265625 2.03125,-0.109375 1.75,-0.109375 c -0.5,0 -0.640625,-0.546875 -0.640625,-0.9375 0,-0.5 0.3125,-1.71875 0.546875,-2.1875 0.3125,-0.578125 0.75,-0.953125 1.15625,-0.953125 0.640625,0 0.78125,0.8125 0.78125,0.875 0,0.0625 -0.015625,0.125 -0.03125,0.171875 z m 0,0"
             id="path3033"
             inkscape:connector-curvature="0" />
        </symbol>
        <symbol
           overflow="visible"
           id="textext-cf98073d-6"
           style="overflow:visible">
          <path
             style="stroke:none"
             d="M 3.59375,-2.21875 C 3.59375,-2.984375 3.5,-3.546875 3.1875,-4.03125 2.96875,-4.34375 2.53125,-4.625 1.984375,-4.625 c -1.625,0 -1.625,1.90625 -1.625,2.40625 0,0.5 0,2.359375 1.625,2.359375 1.609375,0 1.609375,-1.859375 1.609375,-2.359375 z M 1.984375,-0.0625 c -0.328125,0 -0.75,-0.1875 -0.890625,-0.75 C 1,-1.21875 1,-1.796875 1,-2.3125 1,-2.828125 1,-3.359375 1.09375,-3.734375 1.25,-4.28125 1.6875,-4.4375 1.984375,-4.4375 c 0.375,0 0.734375,0.234375 0.859375,0.640625 0.109375,0.375 0.125,0.875 0.125,1.484375 0,0.515625 0,1.03125 -0.09375,1.46875 -0.140625,0.640625 -0.609375,0.78125 -0.890625,0.78125 z m 0,0"
             id="path3036"
             inkscape:connector-curvature="0" />
        </symbol>
        <symbol
           overflow="visible"
           id="textext-cf98073d-7"
           style="overflow:visible">
          <path
             style="stroke:none"
             d="m 2.328125,-4.4375 c 0,-0.1875 0,-0.1875 -0.203125,-0.1875 -0.453125,0.4375 -1.078125,0.4375 -1.359375,0.4375 l 0,0.25 c 0.15625,0 0.625,0 1,-0.1875 l 0,3.546875 c 0,0.234375 0,0.328125 -0.6875,0.328125 l -0.265625,0 0,0.25 c 0.125,0 0.984375,-0.03125 1.234375,-0.03125 0.21875,0 1.09375,0.03125 1.25,0.03125 l 0,-0.25 -0.265625,0 c -0.703125,0 -0.703125,-0.09375 -0.703125,-0.328125 z m 0,0"
             id="path3039"
             inkscape:connector-curvature="0" />
        </symbol>
        <symbol
           overflow="visible"
           id="textext-cf98073d-8"
           style="overflow:visible">
          <path
             style="stroke:none"
             d="m 3.515625,-1.265625 -0.234375,0 c -0.015625,0.15625 -0.09375,0.5625 -0.1875,0.625 -0.046875,0.046875 -0.578125,0.046875 -0.6875,0.046875 l -1.28125,0 c 0.734375,-0.640625 0.984375,-0.84375 1.390625,-1.171875 0.515625,-0.40625 1,-0.84375 1,-1.5 0,-0.84375 -0.734375,-1.359375 -1.625,-1.359375 -0.859375,0 -1.453125,0.609375 -1.453125,1.25 0,0.34375 0.296875,0.390625 0.375,0.390625 0.15625,0 0.359375,-0.125 0.359375,-0.375 0,-0.125 -0.046875,-0.375 -0.40625,-0.375 C 0.984375,-4.21875 1.453125,-4.375 1.78125,-4.375 c 0.703125,0 1.0625,0.546875 1.0625,1.109375 0,0.609375 -0.4375,1.078125 -0.65625,1.328125 L 0.515625,-0.265625 C 0.4375,-0.203125 0.4375,-0.1875 0.4375,0 l 2.875,0 z m 0,0"
             id="path3042"
             inkscape:connector-curvature="0" />
        </symbol>
        <symbol
           overflow="visible"
           id="textext-cf98073d-9"
           style="overflow:visible">
          <path
             style="stroke:none"
             d="m 1.90625,-2.328125 c 0.546875,0 0.9375,0.375 0.9375,1.125 0,0.859375 -0.515625,1.125 -0.90625,1.125 -0.28125,0 -0.90625,-0.078125 -1.1875,-0.5 0.328125,0 0.40625,-0.234375 0.40625,-0.390625 0,-0.21875 -0.171875,-0.375 -0.390625,-0.375 -0.1875,0 -0.390625,0.125 -0.390625,0.40625 0,0.65625 0.71875,1.078125 1.5625,1.078125 0.96875,0 1.640625,-0.65625 1.640625,-1.34375 0,-0.546875 -0.4375,-1.09375 -1.203125,-1.25 0.71875,-0.265625 0.984375,-0.78125 0.984375,-1.21875 0,-0.546875 -0.625,-0.953125 -1.40625,-0.953125 -0.765625,0 -1.359375,0.375 -1.359375,0.9375 0,0.234375 0.15625,0.359375 0.359375,0.359375 0.21875,0 0.359375,-0.15625 0.359375,-0.34375 0,-0.203125 -0.140625,-0.359375 -0.359375,-0.375 0.25,-0.296875 0.71875,-0.375 0.984375,-0.375 0.3125,0 0.75,0.15625 0.75,0.75 0,0.296875 -0.09375,0.625 -0.28125,0.828125 -0.21875,0.265625 -0.421875,0.28125 -0.765625,0.3125 -0.171875,0.015625 -0.1875,0.015625 -0.21875,0.015625 -0.015625,0 -0.078125,0.015625 -0.078125,0.09375 0,0.09375 0.0625,0.09375 0.1875,0.09375 z m 0,0"
             id="path3045"
             inkscape:connector-curvature="0" />
        </symbol>
      </g>
    </defs>
  </defs>
  <metadata
     id="metadata6">
    <rdf:RDF>
      <cc:Work
         rdf:about="">
        <dc:format>image/svg+xml</dc:format>
        <dc:type
           rdf:resource="http://purl.org/dc/dcmitype/StillImage" />
        <dc:title></dc:title>
      </cc:Work>
    </rdf:RDF>
  </metadata>
  <g
     id="layer1"
     inkscape:groupmode="layer"
     inkscape:label="Vrstva 1"
     transform="translate(-142.31697,-265.79622)">
    <g
       id="g5388"
       transform="translate(92.142857,-18.571429)">
      <g
         id="g3502">
        <path
           style="fill:none;stroke:#000000;stroke-width:1px;stroke-linecap:butt;stroke-linejoin:miter;stroke-opacity:1"
           d="m 105.56094,305.35437 0,200.51529"
           id="path3412"
           inkscape:connector-curvature="0" />
        <path
           style="fill:none;stroke:#000000;stroke-width:1px;stroke-linecap:butt;stroke-linejoin:miter;stroke-opacity:1"
           d="m 142.6611,305.35437 0,200.51529"
           id="path3412-4"
           inkscape:connector-curvature="0" />
        <path
           style="fill:none;stroke:#000000;stroke-width:1px;stroke-linecap:butt;stroke-linejoin:miter;stroke-opacity:1"
           d="m 179.76124,305.35437 0,200.51529"
           id="path3412-1"
           inkscape:connector-curvature="0" />
        <path
           style="fill:none;stroke:#000000;stroke-width:1px;stroke-linecap:butt;stroke-linejoin:miter;stroke-opacity:1"
           d="m 216.86139,305.35437 0,200.51529"
           id="path3412-5"
           inkscape:connector-curvature="0" />
        <path
           style="fill:none;stroke:#000000;stroke-width:1px;stroke-linecap:butt;stroke-linejoin:miter;stroke-opacity:1"
           d="m 253.96155,305.35437 0,200.51529"
           id="path3412-8"
           inkscape:connector-curvature="0" />
        <path
           style="fill:none;stroke:#000000;stroke-width:1px;stroke-linecap:butt;stroke-linejoin:miter;stroke-opacity:1"
           d="m 291.0617,305.35437 0,200.51529"
           id="path3412-6"
           inkscape:connector-curvature="0" />
        <path
           style="fill:none;stroke:#000000;stroke-width:1px;stroke-linecap:butt;stroke-linejoin:miter;stroke-opacity:1"
           d="m 328.16186,305.35437 0,200.51529"
           id="path3412-85"
           inkscape:connector-curvature="0" />
        <path
           style="fill:none;stroke:#000000;stroke-width:1px;stroke-linecap:butt;stroke-linejoin:miter;stroke-opacity:1"
           d="m 365.26198,305.35437 0,200.51529"
           id="path3412-86"
           inkscape:connector-curvature="0" />
        <path
           style="fill:none;stroke:#000000;stroke-width:1px;stroke-linecap:butt;stroke-linejoin:miter;stroke-opacity:1"
           d="m 402.36215,305.35437 0,200.51529"
           id="path3412-62"
           inkscape:connector-curvature="0" />
        <path
           style="fill:none;stroke:#000000;stroke-width:1px;stroke-linecap:butt;stroke-linejoin:miter;stroke-opacity:1"
           d="m 439.46232,305.35437 0,200.51529"
           id="path3412-7"
           inkscape:connector-curvature="0" />
        <path
           style="fill:none;stroke:#000000;stroke-width:1px;stroke-linecap:butt;stroke-linejoin:miter;stroke-opacity:1"
           d="m 476.56248,305.35437 0,200.51529"
           id="path3412-10"
           inkscape:connector-curvature="0" />
        <path
           style="fill:none;stroke:#000000;stroke-width:1px;stroke-linecap:butt;stroke-linejoin:miter;stroke-opacity:1"
           d="m 513.66257,305.35437 0,200.51529"
           id="path3412-67"
           inkscape:connector-curvature="0" />
      </g>
      <g
         id="g3752">
        <g
           id="g3320"
           transform="translate(-164.65486,192.98918)">
          <g
             style="fill:#000000;fill-opacity:1"
             id="g3048">
            <use
               height="1052.3622"
               width="744.09448"
               xlink:href="#textext-cf98073d-0"
               x="223.43201"
               y="134.765"
               id="use3050" />
          </g>
          <g
             style="fill:#000000;fill-opacity:1"
             id="g3052">
            <use
               height="1052.3622"
               width="744.09448"
               xlink:href="#textext-cf98073d-1"
               x="230.63895"
               y="134.765"
               id="use3054" />
            <use
               height="1052.3622"
               width="744.09448"
               xlink:href="#textext-cf98073d-2"
               x="236.37939"
               y="134.765"
               id="use3056" />
          </g>
          <g
             style="fill:#000000;fill-opacity:1"
             id="g3058">
            <use
               height="1052.3622"
               width="744.09448"
               xlink:href="#textext-cf98073d-3"
               x="241.15347"
               y="134.765"
               id="use3060" />
            <use
               height="1052.3622"
               width="744.09448"
               xlink:href="#textext-cf98073d-4"
               x="245.79205"
               y="134.765"
               id="use3062" />
            <use
               height="1052.3622"
               width="744.09448"
               xlink:href="#textext-cf98073d-5"
               x="251.05829"
               y="134.765"
               id="use3064" />
          </g>
          <g
             style="fill:#000000;fill-opacity:1"
             id="g3066">
            <use
               height="1052.3622"
               width="744.09448"
               xlink:href="#textext-cf98073d-6"
               x="256.23999"
               y="136.259"
               id="use3068" />
          </g>
        </g>
        <g
           id="g3728">
          <path
             style="fill:#008000;stroke:#000000;stroke-width:0.57203996px;stroke-linecap:butt;stroke-linejoin:miter;stroke-opacity:1"
             d="m 194.46497,331.4561 -65.92424,0 -21.97474,-6.34554 21.97474,-6.34554 65.92424,0 21.97474,6.34554 z"
             id="path2984"
             inkscape:connector-curvature="0"
             sodipodi:nodetypes="cccccc" />
          <path
             style="fill:#ff0000;stroke:#000000;stroke-width:0.66354215px;stroke-linecap:butt;stroke-linejoin:miter;stroke-opacity:1"
             d="m 335.77311,331.4561 -88.70118,0 -29.56706,-6.34554 29.56706,-6.34554 88.70118,0 29.56706,6.34554 z"
             id="path2984-5-6"
             inkscape:connector-curvature="0"
             sodipodi:nodetypes="cccccc" />
          <path
             style="fill:#ff6600;stroke:#000000;stroke-width:0.46848598px;stroke-linecap:butt;stroke-linejoin:miter;stroke-opacity:1"
             d="m 424.46432,331.4561 -44.21663,0 -14.73887,-6.34554 14.73887,-6.34554 44.21663,0 14.73887,6.34554 z"
             id="path2984-5-7"
             inkscape:connector-curvature="0"
             sodipodi:nodetypes="cccccc" />
          <path
             style="fill:#008000;stroke:#000000;stroke-width:0.46851945px;stroke-linecap:butt;stroke-linejoin:miter;stroke-opacity:1"
             d="m 498.75921,331.4561 -44.22294,0 -14.74098,-6.34554 14.74098,-6.34554 44.22294,0 14.74097,6.34554 z"
             id="path2984-4"
             inkscape:connector-curvature="0"
             sodipodi:nodetypes="cccccc" />
        </g>
      </g>
      <g
         id="g3810">
        <g
           id="g3359"
           transform="translate(-286.44887,335.10994)">
          <g
             style="fill:#000000;fill-opacity:1"
             id="g3114">
            <use
               height="1052.3622"
               width="744.09448"
               xlink:href="#textext-cf98073d-0"
               x="345.22601"
               y="134.765"
               id="use3116" />
          </g>
          <g
             style="fill:#000000;fill-opacity:1"
             id="g3118">
            <use
               height="1052.3622"
               width="744.09448"
               xlink:href="#textext-cf98073d-1"
               x="352.43295"
               y="134.765"
               id="use3120" />
            <use
               height="1052.3622"
               width="744.09448"
               xlink:href="#textext-cf98073d-2"
               x="358.1734"
               y="134.765"
               id="use3122" />
          </g>
          <g
             style="fill:#000000;fill-opacity:1"
             id="g3124">
            <use
               height="1052.3622"
               width="744.09448"
               xlink:href="#textext-cf98073d-3"
               x="362.94748"
               y="134.765"
               id="use3126" />
            <use
               height="1052.3622"
               width="744.09448"
               xlink:href="#textext-cf98073d-4"
               x="367.58606"
               y="134.765"
               id="use3128" />
            <use
               height="1052.3622"
               width="744.09448"
               xlink:href="#textext-cf98073d-5"
               x="372.85229"
               y="134.765"
               id="use3130" />
          </g>
          <g
             style="fill:#000000;fill-opacity:1"
             id="g3132">
            <use
               height="1052.3622"
               width="744.09448"
               xlink:href="#textext-cf98073d-9"
               x="378.03299"
               y="136.259"
               id="use3134" />
          </g>
        </g>
        <g
           id="g3747">
          <path
             style="fill:#008000;stroke:#000000;stroke-width:0.4676539px;stroke-linecap:butt;stroke-linejoin:miter;stroke-opacity:1"
             d="m 313.0803,473.57686 -44.05971,0 -14.68655,-6.34554 14.68655,-6.34554 44.05971,0 14.68655,6.34554 z"
             id="path2984-9-1"
             inkscape:connector-curvature="0"
             sodipodi:nodetypes="cccccc" />
          <path
             style="fill:#ff6600;stroke:#000000;stroke-width:0.66474098px;stroke-linecap:butt;stroke-linejoin:miter;stroke-opacity:1"
             d="m 224.0489,473.57686 -89.02201,0 -29.67398,-6.34554 29.67398,-6.34554 89.02201,0 29.67401,6.34554 z"
             id="path2984-5-7-7-6-0"
             inkscape:connector-curvature="0"
             sodipodi:nodetypes="cccccc" />
          <path
             style="fill:#ff0000;stroke:#000000;stroke-width:0.74305403px;stroke-linecap:butt;stroke-linejoin:miter;stroke-opacity:1"
             d="m 476.98192,473.57686 -111.23285,0 -37.07761,-6.34554 37.07761,-6.34554 111.23285,0 37.07763,6.34554 z"
             id="path2984-5-6-9-3"
             inkscape:connector-curvature="0"
             sodipodi:nodetypes="cccccc" />
        </g>
      </g>
      <g
         id="g3889">
        <g
           id="g3346"
           transform="translate(-245.85084,287.80664)">
          <g
             style="fill:#000000;fill-opacity:1"
             id="g3092">
            <use
               height="1052.3622"
               width="744.09448"
               xlink:href="#textext-cf98073d-0"
               x="304.62799"
               y="134.765"
               id="use3094" />
          </g>
          <g
             style="fill:#000000;fill-opacity:1"
             id="g3096">
            <use
               height="1052.3622"
               width="744.09448"
               xlink:href="#textext-cf98073d-1"
               x="311.83493"
               y="134.765"
               id="use3098" />
            <use
               height="1052.3622"
               width="744.09448"
               xlink:href="#textext-cf98073d-2"
               x="317.57541"
               y="134.765"
               id="use3100" />
          </g>
          <g
             style="fill:#000000;fill-opacity:1"
             id="g3102">
            <use
               height="1052.3622"
               width="744.09448"
               xlink:href="#textext-cf98073d-3"
               x="322.34949"
               y="134.765"
               id="use3104" />
            <use
               height="1052.3622"
               width="744.09448"
               xlink:href="#textext-cf98073d-4"
               x="326.98807"
               y="134.765"
               id="use3106" />
            <use
               height="1052.3622"
               width="744.09448"
               xlink:href="#textext-cf98073d-5"
               x="332.2543"
               y="134.765"
               id="use3108" />
          </g>
          <g
             style="fill:#000000;fill-opacity:1"
             id="g3110">
            <use
               height="1052.3622"
               width="744.09448"
               xlink:href="#textext-cf98073d-8"
               x="337.435"
               y="136.259"
               id="use3112" />
          </g>
        </g>
        <path
           sodipodi:nodetypes="cccccc"
           inkscape:connector-curvature="0"
           id="path2984-9"
           d="m 246.44277,426.20325 -21.78554,0 -7.26184,-6.34554 7.26184,-6.34554 21.78554,0 7.26184,6.34554 z"
           style="fill:#008000;stroke:#000000;stroke-width:0.32884249px;stroke-linecap:butt;stroke-linejoin:miter;stroke-opacity:1" />
        <path
           sodipodi:nodetypes="cccccc"
           inkscape:connector-curvature="0"
           id="path2984-5-6-9"
           d="m 342.92692,426.20325 -66.67837,0 -22.22612,-6.34554 22.22612,-6.34554 66.67837,0 22.22613,6.34554 z"
           style="fill:#ff0000;stroke:#000000;stroke-width:0.5753026px;stroke-linecap:butt;stroke-linejoin:miter;stroke-opacity:1" />
        <path
           sodipodi:nodetypes="cccccc"
           inkscape:connector-curvature="0"
           id="path2984-5-7-7-6"
           d="m 194.14424,426.20325 -65.89472,0 -21.96489,-6.34554 21.96489,-6.34554 65.89472,0 21.9649,6.34554 z"
           style="fill:#ff6600;stroke:#000000;stroke-width:0.57191181px;stroke-linecap:butt;stroke-linejoin:miter;stroke-opacity:1" />
        <path
           sodipodi:nodetypes="cccccc"
           inkscape:connector-curvature="0"
           id="path2984-9-14"
           d="m 431.78563,426.20325 -21.78554,0 -7.26184,-6.34554 7.26184,-6.34554 21.78554,0 7.26184,6.34554 z"
           style="fill:#008000;stroke:#000000;stroke-width:0.32884249px;stroke-linecap:butt;stroke-linejoin:miter;stroke-opacity:1" />
        <path
           sodipodi:nodetypes="cccccc"
           inkscape:connector-curvature="0"
           id="path2984-5-7-7-6-8"
           d="m 395.08961,426.20325 -22.53505,0 -7.51168,-6.34554 7.51168,-6.34554 22.53505,0 7.51168,6.34554 z"
           style="fill:#ff6600;stroke:#000000;stroke-width:0.33445141px;stroke-linecap:butt;stroke-linejoin:miter;stroke-opacity:1" />
        <path
           sodipodi:nodetypes="cccccc"
           inkscape:connector-curvature="0"
           id="path2984-5-6-9-3-7"
           d="m 498.81141,426.20325 -44.42549,0 -14.80849,-6.34554 14.80849,-6.34554 44.42549,0 14.8085,6.34554 z"
           style="fill:#ff0000;stroke:#000000;stroke-width:0.4695912px;stroke-linecap:butt;stroke-linejoin:miter;stroke-opacity:1" />
      </g>
      <g
         id="g3771">
        <g
           id="g3333"
           transform="translate(-205.25285,240.43308)">
          <g
             style="fill:#000000;fill-opacity:1"
             id="g3070">
            <use
               height="1052.3622"
               width="744.09448"
               xlink:href="#textext-cf98073d-0"
               x="264.03"
               y="134.765"
               id="use3072" />
          </g>
          <g
             style="fill:#000000;fill-opacity:1"
             id="g3074">
            <use
               height="1052.3622"
               width="744.09448"
               xlink:href="#textext-cf98073d-1"
               x="271.23694"
               y="134.765"
               id="use3076" />
            <use
               height="1052.3622"
               width="744.09448"
               xlink:href="#textext-cf98073d-2"
               x="276.97739"
               y="134.765"
               id="use3078" />
          </g>
          <g
             style="fill:#000000;fill-opacity:1"
             id="g3080">
            <use
               height="1052.3622"
               width="744.09448"
               xlink:href="#textext-cf98073d-3"
               x="281.75146"
               y="134.765"
               id="use3082" />
            <use
               height="1052.3622"
               width="744.09448"
               xlink:href="#textext-cf98073d-4"
               x="286.39005"
               y="134.765"
               id="use3084" />
            <use
               height="1052.3622"
               width="744.09448"
               xlink:href="#textext-cf98073d-5"
               x="291.65628"
               y="134.765"
               id="use3086" />
          </g>
          <g
             style="fill:#000000;fill-opacity:1"
             id="g3088">
            <use
               height="1052.3622"
               width="744.09448"
               xlink:href="#textext-cf98073d-7"
               x="296.83801"
               y="136.259"
               id="use3090" />
          </g>
        </g>
        <g
           id="g3734"
           transform="translate(0,-1.5606079)">
          <path
             style="fill:#008000;stroke:#000000;stroke-width:0.470433px;stroke-linecap:butt;stroke-linejoin:miter;stroke-opacity:1"
             d="m 387.52173,380.39029 -44.58492,0 -14.86163,-6.34554 14.86163,-6.34554 44.58492,0 14.86163,6.34554 z"
             id="path2984-9-4"
             inkscape:connector-curvature="0"
             sodipodi:nodetypes="cccccc" />
          <path
             style="fill:#ff6600;stroke:#000000;stroke-width:0.81421775px;stroke-linecap:butt;stroke-linejoin:miter;stroke-opacity:1"
             d="m 283.3777,380.39029 -133.55912,0 -44.51969,-6.34554 44.51969,-6.34554 133.55912,0 44.51969,6.34554 z"
             id="path2984-5-7-7"
             inkscape:connector-curvature="0"
             sodipodi:nodetypes="cccccc" />
          <path
             style="fill:#ff0000;stroke:#000000;stroke-width:0.57564843px;stroke-linecap:butt;stroke-linejoin:miter;stroke-opacity:1"
             d="m 491.32274,380.39029 -66.75855,0 -22.25285,-6.34554 22.25285,-6.34554 66.75855,0 22.25285,6.34554 z"
             id="path2984-5-6-9-3-6"
             inkscape:connector-curvature="0"
             sodipodi:nodetypes="cccccc" />
        </g>
      </g>
      <g
         transform="translate(-537.85714,252.85714)"
         id="g3961">
        <g
           id="g3946">
          <path
             style="fill:#008000;stroke:#000000;stroke-width:0.32884249px;stroke-linecap:butt;stroke-linejoin:miter;stroke-opacity:1"
             d="m 617.32134,307.99344 -21.78554,0 -7.26184,-6.34554 7.26184,-6.34554 21.78554,0 7.26184,6.34554 z"
             id="path2984-9-14-5"
             inkscape:connector-curvature="0"
             sodipodi:nodetypes="cccccc" />
          <text
             sodipodi:linespacing="125%"
             id="text3934"
             y="304.19427"
             x="628.74646"
             style="font-size:10px;font-style:normal;font-variant:normal;font-weight:normal;font-stretch:normal;line-height:125%;letter-spacing:0px;word-spacing:0px;fill:#000000;fill-opacity:1;stroke:none;font-family:Arial;-inkscape-font-specification:Arial"
             xml:space="preserve"><tspan
               y="304.19427"
               x="628.74646"
               id="tspan3936"
               sodipodi:role="line">vykonává instrukce</tspan></text>
        </g>
        <g
           id="g3951">
          <path
             style="fill:#ff0000;stroke:#000000;stroke-width:0.32884249px;stroke-linecap:butt;stroke-linejoin:miter;stroke-opacity:1"
             d="m 617.32134,325.4934 -21.78554,0 -7.26184,-6.34554 7.26184,-6.34554 21.78554,0 7.26184,6.34554 z"
             id="path2984-9-14-5-8"
             inkscape:connector-curvature="0"
             sodipodi:nodetypes="cccccc" />
          <text
             sodipodi:linespacing="125%"
             id="text3938"
             y="321.73575"
             x="628.48279"
             style="font-size:10px;font-style:normal;font-variant:normal;font-weight:normal;font-stretch:normal;line-height:125%;letter-spacing:0px;word-spacing:0px;fill:#000000;fill-opacity:1;stroke:none;font-family:Arial;-inkscape-font-specification:Arial"
             xml:space="preserve"><tspan
               y="321.73575"
               x="628.48279"
               id="tspan3940"
               sodipodi:role="line">čeká na paměť/synchronizace</tspan></text>
        </g>
        <g
           id="g3956">
          <path
             style="fill:#ff6600;stroke:#000000;stroke-width:0.32884249px;stroke-linecap:butt;stroke-linejoin:miter;stroke-opacity:1"
             d="m 617.32134,342.99344 -21.78554,0 -7.26184,-6.34554 7.26184,-6.34554 21.78554,0 7.26184,6.34554 z"
             id="path2984-9-14-5-2"
             inkscape:connector-curvature="0"
             sodipodi:nodetypes="cccccc" />
          <text
             sodipodi:linespacing="125%"
             id="text3942"
             y="339.25287"
             x="628.21423"
             style="font-size:10px;font-style:normal;font-variant:normal;font-weight:normal;font-stretch:normal;line-height:125%;letter-spacing:0px;word-spacing:0px;fill:#000000;fill-opacity:1;stroke:none;font-family:Arial;-inkscape-font-specification:Arial"
             xml:space="preserve"><tspan
               y="339.25287"
               x="628.21423"
               id="tspan3944"
               sodipodi:role="line">připraven běžet</tspan></text>
        </g>
      </g>
      <text
         sodipodi:linespacing="125%"
         id="text3975"
         y="291.64792"
         x="212.85715"
         style="font-size:10px;font-style:normal;font-variant:normal;font-weight:normal;font-stretch:normal;line-height:125%;letter-spacing:0px;word-spacing:0px;fill:#000000;fill-opacity:1;stroke:none;font-family:Arial;-inkscape-font-specification:Arial"
         xml:space="preserve"><tspan
           y="291.64792"
           x="212.85715"
           id="tspan3977"
           sodipodi:role="line">Vykonávání instrukcí na jednom jádře (SP)</tspan></text>
      <g
         transform="translate(3.5714286,-0.71428572)"
         id="g5383">
        <path
           style="fill:none;stroke:#000000;stroke-width:1px;stroke-linecap:butt;stroke-linejoin:miter;stroke-opacity:1;marker-end:url(#Arrow1Lend)"
           d="m 101.42857,532.36218 418.57143,0"
           id="path3979"
           inkscape:connector-curvature="0" />
        <text
           xml:space="preserve"
           style="font-size:10px;font-style:normal;font-variant:normal;font-weight:normal;font-stretch:normal;line-height:125%;letter-spacing:0px;word-spacing:0px;fill:#000000;fill-opacity:1;stroke:none;font-family:Arial;-inkscape-font-specification:Arial"
           x="267.49997"
           y="525.2193"
           id="text5379"
           sodipodi:linespacing="125%"><tspan
             sodipodi:role="line"
             id="tspan5381"
             x="267.49997"
             y="525.2193">čás, instrukce (takty)</tspan></text>
      </g>
    </g>
  </g>
</svg>
